<svg xmlns="http://www.w3.org/2000/svg" viewBox="0 0 491 216">
	<path fill="#19FF19" d="m 24,7.998 h 134.059 c 21.382,0 32.09,25.851 16.971,40.971 l -41.75,41.75 c 31.262,29.273 71.835,45.319 114.876,45.28 C 325.574,135.929 392.471,82.855 410.943,9.15 412.287,3.787 417.065,0 422.594,0 h 57.304 c 7.498,0 13.194,6.807 11.807,14.176 C 470.067,129.074 369.187,215.998 248,215.998 c -66.448,0 -126.791,-26.136 -171.315,-68.685 L 40.97,183.028 C 25.851,198.147 1.167291e-8,187.439 1.167291e-8,166.057 V 31.998 C 1.167291e-8,18.743 10.745,7.998 24,7.998 Z"/>
</svg>