<svg xmlns="http://www.w3.org/2000/svg" viewBox="0 0 512 512">
  <path d="m0,448l0,-384l18,0l0,384l-18,0zm26.857,-0.273l0,-383.727l9.143,0l0,383.727l-9.143,0zm27.143,0l0,-383.727l8.857,0l0,383.727l-8.857,0zm44.857,0l0,-383.727l8.857,0l0,383.727l-8.857,0zm36,0l0,-383.727l17.714,0l0,383.727l-17.714,0zm44.857,0l0,-383.727l8.857,0l0,383.727l-8.857,0zm18,0l0,-383.727l8.857,0l0,383.727l-8.857,0zm18,0l0,-383.727l8.857,0l0,383.727l-8.857,0zm35.715,0l0,-383.727l18,0l0,383.727l-18,0zm44.857,0l0,-383.727l18,0l0,383.727l-18,0zm35.999,0l0,-383.727l18.001,0l0,383.727l-18.001,0zm36.001,0l0,-383.727l18.001,0l0,383.727l-18.001,0zm26.857,0l0,-383.727l18,0l0,383.727l-18,0zm45.143,0l0,-383.727l26.857,0l0,383.727l-26.857,0zm35.714,0l0,-383.727l9.143,0l0,383.727l-9.143,0zm18,0.273l0,-384l18,0l0,384l-18,0z" fill="#FFFFFF"/>
  <path d="m520,448l0,-384l18,0l0,384l-18,0zm26.857,-0.273l0,-383.727l9.143,0l0,383.727l-9.143,0zm27.143,0l0,-383.727l8.857,0l0,383.727l-8.857,0zm44.857,0l0,-383.727l8.857,0l0,383.727l-8.857,0zm36,0l0,-383.727l17.714,0l0,383.727l-17.714,0zm44.857,0l0,-383.727l8.857,0l0,383.727l-8.857,0zm18,0l0,-383.727l8.857,0l0,383.727l-8.857,0zm18,0l0,-383.727l8.857,0l0,383.727l-8.857,0zm35.715,0l0,-383.727l18,0l0,383.727l-18,0zm44.857,0l0,-383.727l18,0l0,383.727l-18,0zm35.999,0l0,-383.727l18.001,0l0,383.727l-18.001,0zm36.001,0l0,-383.727l18.001,0l0,383.727l-18.001,0zm26.857,0l0,-383.727l18,0l0,383.727l-18,0zm45.143,0l0,-383.727l26.857,0l0,383.727l-26.857,0zm35.714,0l0,-383.727l9.143,0l0,383.727l-9.143,0zm18,0.273l0,-384l18,0l0,384l-18,0z" fill="#FFFFFF"/>
</svg>