<svg xmlns="http://www.w3.org/2000/svg" viewBox="0 0 41 22.5">
    <rect
       fill="#000000"
       width="34.759941"
       height="9.6551332"
       x="3.2287486"
       y="6.9388939e-18"
       ry="1"
       clip-path="none" />
	<path fill="#000000" d="M 3.9727246,10.52879 A 1.3536034,1.3536034 0 0 0 2.8182734,11.221254 L 0.05978588,16.15222 a 0.46545319,0.46545319 0 0 0 0.40617776,0.692465 H 7.6872284 v 4.57233 c 0,0.554001 0.4459367,1.000456 0.9999372,1.000456 h 0.4387347 c 0.5540005,0 0.9999367,-0.446455 0.9999367,-1.000456 v -4.57233 h 20.813718 v 4.57233 c 0,0.554001 0.445939,1.000456 0.99994,1.000456 h 0.438732 c 0.554,0 0.99994,-0.446455 0.99994,-1.000456 v -4.57233 h 7.196976 a 0.48067743,0.48067743 0 0 0 0.426331,-0.703318 L 38.434187,11.232105 A 1.3107316,1.3107316 0 0 0 37.273018,10.52879 H 3.9995983 a 1.3536034,1.3536034 0 0 0 -0.026874,0 z"/>
</svg>