<svg xmlns="http://www.w3.org/2000/svg" viewBox="0 0 448 512">
	<path d="m435.1,399.7c-4.2,13 -4.2,51.6 0,64.6c7.3,1.4 12.9,7.9 12.9,15.7l0,16c0,8.8 -7.2,16 -16,16l-352,0c-44.2,0 -80,-35.8 -80,-80l0,-352c0,-44.2 35.8,-80 80,-80l352,0c8.8,0 16,7.2 16,16l0,368c0,7.8 -5.5,14.2 -12.9,15.7zm-41.1,0.3l-314,0c-17.6,0 -32,14.4 -32,32c0,17.7 14.3,32 32,32l314,0c-2.7,-17.3 -2.7,-46.7 0,-64zm6,-352l-320,0c-17.7,0 -32,14.3 -32,32l0,278.7c9.8,-4.3 20.6,-6.7 32,-6.7l320,0l0,-304z"/>
	<path d="m225,84.00001c-64.06053,0 -116,51.95818 -116,116c0,64.07924 51.93947,116 116,116s116,-51.92076 116,-116c0,-64.04182 -51.93947,-116 -116,-116zm0,209.54838c-51.70045,0 -93.54838,-41.83063 -93.54838,-93.54838c0,-51.68314 41.84981,-93.54838 93.54838,-93.54838c51.68127,0 93.54838,41.84934 93.54838,93.54838c0,51.69951 -41.83063,93.54838 -93.54838,93.54838zm0,-158.09677c10.84974,0 19.64516,8.79542 19.64516,19.64516s-8.79542,19.64516 -19.64516,19.64516s-19.64516,-8.79542 -19.64516,-19.64516s8.79542,-19.64516 19.64516,-19.64516zm26.19355,118.80645c0,3.09973 -2.51318,5.6129 -5.6129,5.6129l-41.16129,0c-3.09973,0 -5.6129,-2.51318 -5.6129,-5.6129l0,-11.22581c0,-3.09973 2.51318,-5.6129 5.6129,-5.6129l5.6129,0l0,-29.93548l-5.6129,0c-3.09973,0 -5.6129,-2.51318 -5.6129,-5.6129l0,-11.22581c0,-3.09973 2.51318,-5.6129 5.6129,-5.6129l29.93548,0c3.09973,0 5.6129,2.51318 5.6129,5.6129l0,46.77419l5.6129,0c3.09973,0 5.6129,2.51318 5.6129,5.6129l0,11.22581z"/>
</svg>