<svg width="448" height="512" xmlns="http://www.w3.org/2000/svg">
	<path d="m435.1,399.7c-4.2,13 -4.2,51.6 0,64.6c7.3,1.4 12.9,7.9 12.9,15.7l0,16c0,8.8 -7.2,16 -16,16l-352,0c-44.2,0 -80,-35.8 -80,-80l0,-352c0,-44.2 35.8,-80 80,-80l352,0c8.8,0 16,7.2 16,16l0,368c0,7.8 -5.5,14.2 -12.9,15.7zm-41.1,0.3l-314,0c-17.6,0 -32,14.4 -32,32c0,17.7 14.3,32 32,32l314,0c-2.7,-17.3 -2.7,-46.7 0,-64zm6,-352l-320,0c-17.7,0 -32,14.3 -32,32l0,278.7c9.8,-4.3 20.6,-6.7 32,-6.7l320,0l0,-304z"/>
	<path d="m149.69969,260.26223l0,17.03791l-14.90817,0q-2.12974,0 -2.12974,-2.12974l0,-2.12974l-6.38922,0q-2.12974,0 -2.12974,-2.12974l0,-4.25948q0,-2.12974 2.12974,-2.12974l6.38922,0l0,-2.12974q0,-2.12974 2.12974,-2.12974l14.90817,0zm0,-34.07582l0,17.03791l-14.90817,0q-2.12974,0 -2.12974,-2.12974l0,-2.12974l-6.38922,0q-2.12974,0 -2.12974,-2.12974l0,-4.25948q0,-2.12974 2.12974,-2.12974l6.38922,0l0,-2.12974q0,-2.12974 2.12974,-2.12974l14.90817,0zm0,-34.07582l0,17.03791l-14.90817,0q-2.12974,0 -2.12974,-2.12974l0,-2.12974l-6.38922,0q-2.12974,0 -2.12974,-2.12974l0,-4.25948q0,-2.12974 2.12974,-2.12974l6.38922,0l0,-2.12974q0,-2.12974 2.12974,-2.12974l14.90817,0zm0,-34.07582l0,17.03791l-14.90817,0q-2.12974,0 -2.12974,-2.12974l0,-2.12974l-6.38922,0q-2.12974,0 -2.12974,-2.12974l0,-4.25948q0,-2.12974 2.12974,-2.12974l6.38922,0l0,-2.12974q0,-2.12974 2.12974,-2.12974l14.90817,0zm0,-34.07582l0,17.03791l-14.90817,0q-2.12974,0 -2.12974,-2.12974l0,-2.12974l-6.38922,0q-2.12974,0 -2.12974,-2.12974l0,-4.25948q0,-2.12974 2.12974,-2.12974l6.38922,0l0,-2.12974q0,-2.12974 2.12974,-2.12974l14.90817,0zm144.82225,-21.29739l0,195.93599q0,5.32435 -3.72704,9.05139t-9.05139,3.72704l-110.74643,0q-5.32435,0 -9.05139,-3.72704t-3.72704,-9.05139l0,-195.93599q0,-5.32435 3.72704,-9.05139t9.05139,-3.72704l110.74643,0q5.32435,0 9.05139,3.72704t3.72704,9.05139zm34.07582,163.98991l0,4.25948q0,2.12974 -2.12974,2.12974l-6.38922,0l0,2.12974q0,2.12974 -2.12974,2.12974l-14.90817,0l0,-17.03791l14.90817,0q2.12974,0 2.12974,2.12974l0,2.12974l6.38922,0q2.12974,0 2.12974,2.12974zm0,-34.07582l0,4.25948q0,2.12974 -2.12974,2.12974l-6.38922,0l0,2.12974q0,2.12974 -2.12974,2.12974l-14.90817,0l0,-17.03791l14.90817,0q2.12974,0 2.12974,2.12974l0,2.12974l6.38922,0q2.12974,0 2.12974,2.12974zm0,-34.07582l0,4.25948q0,2.12974 -2.12974,2.12974l-6.38922,0l0,2.12974q0,2.12974 -2.12974,2.12974l-14.90817,0l0,-17.03791l14.90817,0q2.12974,0 2.12974,2.12974l0,2.12974l6.38922,0q2.12974,0 2.12974,2.12974zm0,-34.07582l0,4.25948q0,2.12974 -2.12974,2.12974l-6.38922,0l0,2.12974q0,2.12974 -2.12974,2.12974l-14.90817,0l0,-17.03791l14.90817,0q2.12974,0 2.12974,2.12974l0,2.12974l6.38922,0q2.12974,0 2.12974,2.12974zm0,-34.07582l0,4.25948q0,2.12974 -2.12974,2.12974l-6.38922,0l0,2.12974q0,2.12974 -2.12974,2.12974l-14.90817,0l0,-17.03791l14.90817,0q2.12974,0 2.12974,2.12974l0,2.12974l6.38922,0q2.12974,0 2.12974,2.12974z"/>
</svg>