<svg xmlns="http://www.w3.org/2000/svg" viewBox="0 0 256 256">
     <path d="m 114,86 -11,11 -5,-5 c -0.666667,-0.770833 -1.333333,-0.770834 -2,0 l -10,10 5,5 c 1.249652,1.03542 0.468862,1.47169 0,2 l -11.679592,11.84532 c -1.818379,1.8724 -1.419845,6.08119 -1.419845,6.08119 L 80,130 119,92 Z m -5,72 9.36713,9.50174 c 1.57272,1.57272 5.18335,-0.18335 7,-2 1.37436,-1.37436 2.1829,-3.51907 2.63287,-5.50174 0.5902,-2.60053 0,-8 0,-8 0,-1.85584 0.70509,-2.70509 2,-4 l 12,-12 44,33 h 9 l 20,-4 -55,-56 c -0.47071,-0.47071 -1.50039,-0.49961 -2,0 z m 67,-124 -5,-2 c -1.59515,-0.427419 -3.12927,0.129272 -4,1 l -35,35 5,6 -11,11 5,6 -51,51 -6,-5 -57,57 c -3.551069,3.09428 -3.101176,6.08233 0,9 l 19,19 c 3.032199,3.47748 6.026615,2.87444 9,0 L 102,165 97,159 159.76149,96.134667 165,102 l 11,-11 57,56 5,-25 -2,-7 -32,-53 z" />
</svg>