<svg xmlns="http://www.w3.org/2000/svg" viewBox="0 0 512 512">
  <path d="M 12 64 C 5.4 64 0 69.4 0 76 L 0 436 C 0 442.6 5.4 448 12 448 L 326.89844 448 L 326.89844 420.47266 L 241.78906 420.47266 C 228.89197 420.47266 218.33984 409.92052 218.33984 397.02344 L 218.33984 384 L 64 384 L 64 76 C 64 69.4 58.6 64 52 64 L 12 64 z M 192.48828 97.511719 C 188.70078 97.699219 185.00078 99.650782 182.80078 103.30078 L 96 248 L 96 352 L 218.33984 352 L 218.33984 350.125 C 218.33984 337.22792 228.89197 326.67578 241.78906 326.67578 L 326.89844 326.67578 L 326.89844 241.57227 C 326.89844 228.67517 337.45058 218.12305 350.34766 218.12305 L 397.24609 218.12305 C 410.14317 218.12305 420.69531 228.67517 420.69531 241.57227 L 420.69531 326.67578 L 467.87695 326.67578 L 390.09961 164.19922 C 386.89961 157.69922 378.69922 155.5 372.69922 159.5 L 288 216 L 202.69922 102.30078 C 200.14922 98.900782 196.27578 97.324219 192.48828 97.511719 z M 420.69531 420.47266 L 420.69531 448 L 500 448 C 506.6 448 512 442.6 512 436 L 512 420.47266 L 484.09766 420.47266 L 420.69531 420.47266 z "/>
  <path style="fill:#00aa00" d="m 512.29244,358.73594 v 29.6775 c 0,8.16131 -6.67744,14.83875 -14.83875,14.83875 h -93.97872 v 93.97872 c 0,8.16131 -6.67744,14.83875 -14.83875,14.83875 h -29.6775 c -8.16131,0 -14.83875,-6.67744 -14.83875,-14.83875 v -93.97872 h -93.97872 c -8.16132,0 -14.83875,-6.67744 -14.83875,-14.83875 v -29.6775 c 0,-8.16131 6.67743,-14.83875 14.83875,-14.83875 h 93.97872 v -93.97872 c 0,-8.16132 6.67744,-14.83875 14.83875,-14.83875 h 29.6775 c 8.16131,0 14.83875,6.67743 14.83875,14.83875 v 93.97872 h 93.97872 c 8.16131,0 14.83875,6.67744 14.83875,14.83875 z"/>
</svg>