<svg xmlns="http://www.w3.org/2000/svg" viewBox="0 0 210 297">
  <path fill="#000000" d="m 113.17933,293.61931 93.47358,-93.47356 c 4.50815,-4.50815 4.50815,-11.817 0,-16.32466 l -10.9022,-10.90222 c -4.50046,-4.50044 -11.79439,-4.50911 -16.30544,-0.0193 l -74.42851,74.07936 -74.428021,-74.0798 c -4.511037,-4.48988 -11.80498,-4.48123 -16.305427,0.0193 L 3.3811004,183.8206 c -4.5081339,4.50815 -4.5081339,11.817 0,16.32468 l 93.4735636,93.47354 c 4.507686,4.50815 11.816516,4.50815 16.324666,4.9e-4 z"/>
  <path fill="#000000" d="m 113.17935,3.6282655 93.47356,93.4732675 c 4.50815,4.508157 4.50815,11.817017 0,16.324677 l -10.90219,10.90221 c -4.50047,4.50045 -11.7944,4.50912 -16.30544,0.0193 L 105.01679,50.268554 30.588756,124.34811 c -4.51105,4.48988 -11.805,4.48123 -16.30544,-0.0193 L 3.3811059,113.42667 c -4.50814,-4.50815 -4.50814,-11.81701 0,-16.324694 L 96.854696,3.6287563 c 4.507684,-4.50815193 11.816514,-4.50815193 16.324654,-4.908e-4 z" />
</svg>
