<svg xmlns="http://www.w3.org/2000/svg" viewBox="0 0 600 512">
	<path d="M 192 0 C 156.7 0 128 28.7 128 64 L 48 64 C 21.5 64 0 85.5 0 112 L 0 464 C 0 490.5 21.5 512 48 512 L 336 512 C 362.5 512 384 490.5 384 464 L 384 416.56055 L 336 416.56055 L 336 456 C 336 460.4 332.4 464 328 464 L 56 464 C 51.6 464 48 460.4 48 456 L 48 120 C 48 115.6 51.6 112 56 112 L 96 112 L 96 144 C 96 152.8 103.2 160 112 160 L 272 160 C 280.8 160 288 152.8 288 144 L 288 112 L 328 112 C 332.4 112 336 115.6 336 120 L 336 308.04883 L 384 308.04883 L 384 112 C 384 85.5 362.5 64 336 64 L 256 64 C 256 28.7 227.3 0 192 0 z M 192 48 C 200.8 48 208 55.2 208 64 C 208 72.8 200.8 80 192 80 C 183.2 80 176 72.8 176 64 C 176 55.2 183.2 48 192 48 z M 112 232 C 98.7 232 88 242.7 88 256 C 88 269.3 98.7 280 112 280 C 125.3 280 136 269.3 136 256 C 136 242.7 125.3 232 112 232 z M 168 240 C 163.6 240 160 243.6 160 248 L 160 264 C 160 268.4 163.6 272 168 272 L 280 272 C 284.4 272 288 268.4 288 264 L 288 248 C 288 243.6 284.4 240 280 240 L 168 240 z M 112 328 C 98.7 328 88 338.7 88 352 C 88 365.3 98.7 376 112 376 C 125.3 376 136 365.3 136 352 C 136 338.7 125.3 328 112 328 z M 168 336 C 163.6 336 160 339.6 160 344 L 160 360 C 160 364.4 163.6 368 168 368 L 280 368 C 284.4 368 288 364.4 288 360 L 288 344 C 288 339.6 284.4 336 280 336 L 168 336 z "/>
	<path fill="#00aa00" d="m 502.99524,323.58103 h 106.49117 q 3.9329,0 6.807,2.87406 2.874,2.87404 2.874,6.80696 v 58.08607 q 0,3.93292 -2.874,6.80698 -2.8741,2.87404 -6.807,2.87404 H 502.99524 v 106.49115 q 0,3.93292 -2.87406,6.80697 -2.87404,2.87405 -6.80696,2.87405 h -58.08607 q -3.93292,0 -6.80698,-2.87405 -2.87404,-2.87405 -2.87404,-6.80697 V 401.02914 H 319.05598 q -3.93292,0 -6.80697,-2.87404 -2.87405,-2.87406 -2.87405,-6.80698 v -58.08607 q 0,-3.93292 2.87405,-6.80696 2.87405,-2.87406 6.80697,-2.87406 H 425.54713 V 217.08988 q 0,-3.93292 2.87404,-6.80696 2.87406,-2.87406 6.80698,-2.87406 h 58.08607 q 3.93292,0 6.80696,2.87406 2.87406,2.87404 2.87406,6.80696 z"/>
</svg>

