<svg xmlns="http://www.w3.org/2000/svg" viewBox="0 0 514 514">
  <path fill="#00AA00" d="M 256,8 C 119,8 8,119 8,256 8,393 119,504 256,504 393,504 504,393 504,256 504,119 393,8 256,8 Z m 0,461.90824 C 145.5,469.90824 41.789412,366.5 41.789412,256 41.789412,145.5 145.5,42.103272 256,42.103272 366.5,42.103272 469.90824,145.5 469.90824,256 469.90824,366.5 366.5,469.90824 256,469.90824 Z"/>
  <path fill="#00AA00" d="m 254.58117,79.750588 c -96.5798,0 -174.830586,78.250782 -174.830586,174.830582 0,96.5798 78.250786,174.83059 174.830586,174.83059 96.5798,0 174.83059,-78.25079 174.83059,-174.83059 0,-96.5798 -78.25079,-174.830582 -174.83059,-174.830582 z m 0,315.822992 c -77.89831,0 -140.99241,-63.0941 -140.99241,-140.99241 0,-77.8983 63.0941,-140.9924 140.99241,-140.9924 77.8983,0 140.99241,63.0941 140.99241,140.9924 0,77.89831 -63.09411,140.99241 -140.99241,140.99241 z"/>
</svg>
