<svg xmlns="http://www.w3.org/2000/svg" viewBox="0 0 514 514">
	<path fill="#808080" d="m256,8c-137,0 -248,111 -248,248s111,248 248,248s248,-111 248,-248s-111,-248 -248,-248zm0,448c-110.5,0 -200,-89.5 -200,-200s89.5,-200 200,-200s200,89.5 200,200s-89.5,200 -200,200z"/>
	<path fill="#808080" d="m348.41179,188.17267l-159.69131,159.69131l22.7502,22.68735c9.48972,9.48972 2.76522,25.7668 -10.6838,25.7668l-70.38736,0a15.0453,15.0453 0 0 1 -15.083,-15.083l0,-70.38736c0,-13.44901 16.27708,-20.17352 25.7668,-10.6838l22.7502,22.7502l159.69131,-159.69131l-22.7502,-22.68735c-9.48972,-9.48972 -2.76522,-25.7668 10.6838,-25.7668l70.38736,0a15.0453,15.0453 0 0 1 15.083,15.083l0,70.38736c0,13.44901 -16.27708,20.17352 -25.7668,10.6838l-22.7502,-22.7502z"/>
</svg>