<svg xmlns="http://www.w3.org/2000/svg" viewBox="0 0 500 300">
	<path d="m 161.71875,0 c -10.24323,0 -18.48958,8.2606978 -18.48958,18.521739 0,10.261042 8.24635,18.521738 18.48958,18.521738 h 57.03124 V 62.245919 H 102.89306 c -15.453664,0 -27.893061,12.565586 -27.893061,28.173913 V 132 H 36.979166 V 75.130433 c 0,-10.261043 -8.246354,-18.521739 -18.489583,-18.521739 C 8.2463541,56.608694 0,64.86939 0,75.130433 V 225.91304 c 0,10.26105 8.2463541,18.52174 18.489583,18.52174 10.243229,0 18.489583,-8.26069 18.489583,-18.52174 v -56.86956 h 38.020833 v 53.2174 c 0,15.60834 12.439397,28.17391 27.893061,28.17391 h 36.19792 C 158.9544,277.5785 175.01433,300 190.34831,300 h 148.11605 c 41.37563,0 61.01075,-21.17425 61.01075,-50.6087 0.0977,-42.11717 -0.0692,-79.12303 -0.0692,-121.14538 0,-14.44865 -13.13614,-23.43151 -25.94399,-35.404885 C 357.22771,77.664542 341.86599,62.245919 318.90464,62.245919 H 255.20833 V 37.043477 h 57.03125 c 10.24323,0 18.48959,-8.260696 18.48959,-18.521738 C 330.72917,8.2606978 322.48281,0 312.23958,0 Z m 289.32291,99.652173 c -13.56146,0 -24.47916,10.936697 -24.47916,24.521737 v 151.30436 c 0,13.58504 10.9177,24.52173 24.47916,24.52173 h 24.47917 C 489.08229,300 500,289.06331 500,275.47827 V 124.17391 C 500,110.58887 489.08229,99.652173 475.52083,99.652173 Z M 223.64908,123.6481 a 26.089058,26.134431 0 0 1 6.80746,0.88858 26.089058,26.134431 0 0 1 18.4489,32.00952 26.089058,26.134431 0 0 1 -31.95394,18.48098 26.089058,26.134431 0 0 1 -18.4489,-32.00951 26.089058,26.134431 0 0 1 25.14648,-19.36957 z m 74.97558,0.36685 a 26.089058,26.134431 0 0 1 6.80746,0.89266 26.089058,26.134431 0 0 1 18.4489,32.0095 26.089058,26.134431 0 0 1 -31.95394,18.47691 26.089058,26.134431 0 0 1 -18.44483,-32.00544 26.089058,26.134431 0 0 1 25.14241,-19.37363 z M 148.6735,124.6712 a 26.089058,26.134431 0 0 1 6.80746,0.89266 26.089058,26.134431 0 0 1 18.44481,32.00542 26.089058,26.134431 0 0 1 -31.94985,18.48099 26.089058,26.134431 0 0 1 -18.4489,-32.00952 26.089058,26.134431 0 0 1 25.14648,-19.36955 z"></path>
</svg>