<svg xmlns="http://www.w3.org/2000/svg" viewBox="0 0 512 512">
  <path d="m156.66,256l-140.66,0c-8.84,0 -16,7.16 -16,16l0,32c0,8.84 7.16,16 16,16l142.19,0c15.95,0 30.77,10.85 33.37,26.58c3.3,20.02 -12.14,37.42 -31.56,37.42c-14.11,0 -26.13,-9.19 -30.37,-21.9c-2.11,-6.31 -8.6,-10.1 -15.25,-10.1l-32.75,0c-9.8,0 -17.73,8.81 -15.86,18.43c8.62,44.15 47.6,77.57 94.23,77.57c57.09,0 102.7,-50.09 95.19,-108.63c-6.21,-48.39 -49.74,-83.37 -98.53,-83.37zm-140.66,-32l336,0c59.7,0 106.83,-54.76 93.83,-116.69c-7.61,-36.23 -36.91,-65.53 -73.14,-73.14c-55.44,-11.64 -105.13,24.91 -114.93,75.53c-1.86,9.57 6.09,18.3 15.84,18.3l32.8,0c6.65,0 13.14,-3.79 15.25,-10.1c4.23,-12.71 16.24,-21.9 30.35,-21.9c19.42,0 34.86,17.39 31.55,37.41c-2.6,15.73 -17.42,26.59 -33.37,26.59l-334.18,0c-8.84,0 -16,7.16 -16,16l0,32c0,8.84 7.16,16 16,16zm384,32l-156.32,0c19.34,16.57 33.19,38.79 39.77,64l116.55,0c26.47,0 48,21.53 48,48s-21.53,48 -48,48c-17.86,0 -33.33,-9.86 -41.56,-24.38c-2.85,-5.03 -8.69,-7.62 -14.47,-7.62l-33.82,0c-10.91,0 -18.96,10.81 -15.35,21.1c17.77,50.6 70.54,84.75 129.41,72.35c41.22,-8.69 75.1,-41.65 84.67,-82.68c17.1,-73.31 -38.4,-138.77 -108.88,-138.77z" fill="#0000bf"/>
  <path d="m144.76886,367.71711l0,56.76735q0,6.58907 -4.81509,11.40416t-11.40416,4.81509l-64.87698,0q-6.58907,0 -11.40416,-4.81509t-4.81509,-11.40416l0,-56.76735q0,-6.58907 4.81509,-11.40416t11.40416,-4.81509l64.87698,0q6.58907,0 11.40416,4.81509t4.81509,11.40416zm7.60277,-267.61752l-7.09592,194.63093q-0.25343,6.58907 -5.19523,11.40416t-11.53087,4.81509l-64.87698,0q-6.58907,0 -11.53087,-4.81509t-5.19523,-11.40416l-7.09592,-194.63093q-0.25343,-6.58907 4.43495,-11.40416t11.27744,-4.81509l81.09622,0q6.58907,0 11.27744,4.81509t4.43495,11.40416l0.00002,0z" fill="#ff0000"/>
</svg>