<svg xmlns="http://www.w3.org/2000/svg" viewBox="0 0 491 216">
	<path fill="#19FF19" d="m 467.91395,7.998 h -134.059 c -21.382,0 -32.09,25.851 -16.971,40.971 l 41.75,41.75 c -31.262,29.273 -71.835,45.319 -114.876,45.28 C 166.33995,135.929 99.442953,82.855 80.970953,9.15 79.626953,3.787 74.848953,0 69.319953,0 h -57.304 C 4.5179527,0 -1.1780473,6.807 0.20895267,14.176 21.846953,129.074 122.72695,215.998 243.91395,215.998 c 66.448,0 126.791,-26.136 171.315,-68.685 l 35.715,35.715 c 15.119,15.119 40.97,4.411 40.97,-16.971 V 31.998 c 0,-13.255 -10.745,-24 -24,-24 z"/>
</svg>