<svg xmlns="http://www.w3.org/2000/svg" viewBox="0 0 448 512">
	<path d="M435.1 399.7c-4.2 13-4.2 51.6 0 64.6 7.3 1.4 12.9 7.9 12.9 15.7v16c0 8.8-7.2 16-16 16H80c-44.2 0-80-35.8-80-80V80C0 35.8 35.8 0 80 0h352c8.8 0 16 7.2 16 16v368c0 7.8-5.5 14.2-12.9 15.7zm-41.1.3H80c-17.6 0-32 14.4-32 32 0 17.7 14.3 32 32 32h314c-2.7-17.3-2.7-46.7 0-64zm6-352H80c-17.7 0-32 14.3-32 32v278.7c9.8-4.3 20.6-6.7 32-6.7h320V48z"/>
	<path d="m351.9395,129.63294c-1.08063,-4.35628 -6.53201,-5.8325 -9.70636,-2.65815l-35.873,35.873l-32.74689,-5.45621l-5.45621,-32.74689l35.873,-35.873c3.19364,-3.19364 1.65471,-8.63538 -2.73052,-9.72565c-22.85722,-5.66365 -48.02524,0.43901 -65.88938,18.29832c-19.12326,19.12326 -24.3865,46.8433 -16.42651,71.01271l-102.94431,102.94431c-12.05576,12.05576 -12.05576,31.60355 0,43.65931c12.05576,12.05576 31.60355,12.05576 43.65931,0l102.85748,-102.85748c24.17906,8.06129 51.84603,2.74016 71.09472,-16.50853c17.88343,-17.88343 23.97644,-43.09005 18.28867,-65.96174zm-214.0657,175.07142c-6.39211,0 -11.57816,-5.18605 -11.57816,-11.57816c0,-6.39693 5.18605,-11.57816 11.57816,-11.57816s11.57816,5.18123 11.57816,11.57816c0,6.39211 -5.18605,11.57816 -11.57816,11.57816z"/>
</svg>