<svg width="1800" height="1683" xmlns="http://www.w3.org/2000/svg">
  <path d="m1792,1184l0,192q0,13 -9.5,22.5t-22.5,9.5l-1376,0l0,192q0,13 -9.5,22.5t-22.5,9.5q-12,0 -24,-10l-319,-320q-9,-9 -9,-22q0,-14 9,-23l320,-320q9,-9 23,-9q13,0 22.5,9.5t9.5,22.5l0,192l1376,0q13,0 22.5,9.5t9.5,22.5zm0,-544q0,14 -9,23l-320,320q-9,9 -23,9q-13,0 -22.5,-9.5t-9.5,-22.5l0,-192l-1376,0q-13,0 -22.5,-9.5t-9.5,-22.5l0,-192q0,-13 9.5,-22.5t22.5,-9.5l1376,0l0,-192q0,-14 9,-23t23,-9q12,0 24,10l319,319q9,9 9,23z" id="svg_1"/>
  <path fill="#ff0000" d="m1088.00002,1311.99999l0,224q0,26 -19,45t-45,19l-256,0q-26,0 -45,-19t-19,-45l0,-224q0,-26 19,-45t45,-19l256,0q26,0 45,19t19,45zm30,-1056l-28,768q-1,26 -20.5,45t-45.5,19l-256,0q-26,0 -45.5,-19t-20.5,-45l-28,-768q-1,-26 17.5,-45t44.5,-19l320,0q26,0 44.5,19t17.5,45z"/>
</svg>