<svg width="1795" height="1664" xmlns="http://www.w3.org/2000/svg">
	<path style="fill:#464646" d="m 1025.0139,1394 v -190 q 0,-14 -9.5,-23.5 -9.5,-9.5 -22.49998,-9.5 H 801.01389 q -13,0 -22.5,9.5 -9.5,9.5 -9.5,23.5 v 190 q 0,14 9.5,23.5 9.5,9.5 22.5,9.5 h 192.00003 q 12.99998,0 22.49998,-9.5 9.5,-9.5 9.5,-23.5 z m -2,-374 18,-458.99999 q 0,-12 -10,-19 -13,-11 -24,-11 H 787.01389 q -11,0 -24,11 -10,7 -10,21 l 17,456.99999 q 0,10 10,16.5 10,6.5 24,6.5 h 185.00003 q 13.99998,0 23.49998,-6.5 9.5,-6.5 10.5,-16.5 z m -14,-933.999988 768,1407.999988 q 35,63 -2,126 -17,29 -46.5,46 -29.5,17 -63.5,17 H 129.01389 q -33.999999,0 -63.500001,-17 -29.5,-17 -46.5,-46 -37,-63 -2,-126 L 785.01389,86.000012 q 17,-31 47,-49 30,-18 65,-18 35,0 65,18 30.00003,18 47.00001,49 z" />
</svg>