<svg xmlns="http://www.w3.org/2000/svg" viewBox="0 0 384 512">
  <path d="m369.9,97.9l-83.9,-83.9c-9,-9 -21.2,-14.1 -33.9,-14.1l-204.1,0c-26.5,0.1 -48,21.6 -48,48.1l0,416c0,26.5 21.5,48 48,48l288,0c26.5,0 48,-21.5 48,-48l0,-332.1c0,-12.7 -5.1,-25 -14.1,-34zm-37.8,30.1l-76.1,0l0,-76.1l76.1,76.1zm-284.1,336l0,-416l160,0l0,104c0,13.3 10.7,24 24,24l104,0l0,288l-288,0z"/>
  <path fill="#555555" d="m211.1,234.1l46.8,46.8c2,2 2,5.2 0,7.2l-114.5,114.5l-48.2,5.4c-6.4,0.7 -11.9,-4.7 -11.2,-11.2l5.4,-48.2l114.5,-114.5c2,-2 5.2,-2 7.2,0zm83,17.8l-19.5,19.5c-2,2 -5.2,2 -7.2,0l-46.8,-46.8c-2,-2 -2,-5.2 0,-7.2l19.5,-19.5c7.9,-7.9 20.7,-7.9 28.6,0l25.4,25.4c7.9,7.9 7.9,20.7 0,28.6z" />
</svg>