<svg xmlns="http://www.w3.org/2000/svg" viewBox="0 0 448 512">
	<path d="M 223.5 0 C 139.5 0.3 72 69.5 72 153.5 L 72 256 L 48 256 C 21.5 256 0 277.5 0 304 L 0 464 C 0 490.5 21.5 512 48 512 L 400 512 C 426.5 512 448 490.5 448 464 L 448 304 C 448 277.5 426.5 256 400 256 L 376 256 L 376 152 C 376 68 307.5 -0.3 223.5 0 z M 223.30078 80 C 263.30078 79.6 296 112.1 296 152 L 296 256 L 152 256 L 152 152.90039 C 152 113.30039 183.70078 80.4 223.30078 80 z M 224 320 C 246.1 320 264 337.9 264 360 L 264 408 C 264 430.1 246.1 448 224 448 C 201.9 448 184 430.1 184 408 L 184 360 C 184 337.9 201.9 320 224 320 z "/>
</svg>