<svg xmlns="http://www.w3.org/2000/svg" viewBox="0 0 576 512">
	<path fill="#FFFFFF" d="m 63.999807,425.03994 -136.901,-136 c -9.465,-9.388 -9.465,-24.691 0,-34.079 l 136.901,-136.001 c 9.384,-9.307 24.526,-9.277 33.872,0.069 l 22.056003,22.056 c 9.619,9.619 9.329,25.301 -0.639,34.557 l -60.449003,56.358 H 351.99981 v -83.976 a 11.996,11.996 0 0 1 3.515,-8.485 l 56,-55.999997 c 7.559,-7.56 20.485,-2.206 20.485,8.485 V 287.99994 c 0,13.255 -10.745,24 -24,24 H 58.839807 l 60.448003,56.357 c 9.968,9.256 10.258,24.938 0.639,34.557 l -22.056003,22.056 c -9.345,9.346 -24.487,9.377 -33.871,0.07 z"/>
</svg>