<svg xmlns="http://www.w3.org/2000/svg" viewBox="0 0 420 380">
	<path d="m1.24403,151.07256c0.32781,0.00004 27.06622,7.28894 59.24723,16.20632c32.17536,8.91738 59.89715,16.6416 61.53052,16.96398c2.82587,0.76339 2.39079,-0.10707 -6.19287,-12.61032c-27.38972,-39.90073 -35.65123,-52.29654 -34.23834,-51.53334c0.87033,0.5427 15.65452,10.44122 32.82927,21.96216c17.28212,11.63399 31.5238,20.9842 31.63121,20.76944c0.2148,-0.2204 -7.7169,-27.72383 -17.38861,-61.20725c-9.7791,-33.48344 -17.60341,-60.9925 -17.38297,-61.09986c0.1074,-0.10737 11.08662,18.91854 24.34299,42.39848l24.12817,42.72627l-0.00443,33.48214l-0.00444,33.58953l-3.58958,4.45891c-8.80717,10.86753 -12.29008,20.76363 -11.30814,32.06766c1.51799,18.04687 12.28301,32.72075 29.02319,39.46574c8.47748,3.36968 24.13337,3.37175 32.61174,0.00431c16.95675,-6.84792 27.61261,-21.51897 29.03368,-39.89327c0.75867,-9.89081 -2.28087,-19.02476 -9.5649,-29.13706l-5.32883,-7.27476l0.00456,-34.45993l0.00456,-34.45993l23.05421,-42.07006c12.71994,-23.15435 23.26897,-41.96264 23.48938,-41.84957c0.10736,0.22044 -7.06847,26.74409 -15.9915,58.91945c-8.91738,32.17536 -16.64162,60.00454 -17.07703,61.63789c-0.65036,2.93328 -0.00035,2.6112 11.0898,-5.1079c33.37779,-22.9312 53.92443,-36.6288 53.1669,-35.3233c-0.5427,0.87033 -10.44122,15.65452 -22.06955,32.82925c-11.52661,17.28213 -20.87681,31.52381 -20.66205,31.63122c0.10736,0.21479 27.72383,-7.7169 61.20725,-17.38861c33.37605,-9.77911 60.87946,-17.60342 61.09988,-17.49601c0.10736,0.22044 -24.67832,14.45442 -55.22937,31.62666c-30.44368,17.27963 -55.22936,31.51927 -55.122,31.73406c0.21474,0.22045 17.50362,3.48391 38.37574,7.50521c20.76474,3.91389 38.04795,7.29039 38.15533,7.39779c0.32777,0.32786 -52.07282,10.75443 -70.01254,14.01323c-5.76513,1.08441 -6.62994,1.5195 -5.21709,2.61051c0.9777,0.6501 26.20049,14.68157 55.98411,30.99138c29.89664,16.41721 54.13606,29.90031 54.02865,30.12072c-0.21479,0.10736 -26.63105,-7.06846 -58.91945,-15.9915c-32.17536,-8.91738 -60.00454,-16.64162 -61.63791,-16.96399c-2.82587,-0.76339 -2.39079,0.10707 6.19287,12.61032c27.38972,39.90073 35.65123,52.29654 34.23834,51.53334c-0.87033,-0.5427 -15.65452,-10.43557 -32.82925,-22.06955c-17.28213,-11.52661 -31.52381,-20.87681 -31.63122,-20.66205c-0.21479,0.10736 7.7169,27.72383 17.38861,61.20725c9.77911,33.37605 17.60342,60.87946 17.38862,61.09986c-0.1074,0.10737 -14.34704,-24.6783 -31.62667,-55.12198c-17.17223,-30.55105 -31.51925,-55.33674 -31.62667,-55.12198c-0.2148,0.2204 -3.59129,17.39622 -7.50519,38.26835c-3.91955,20.76474 -7.183,38.04797 -7.39779,38.15533c-0.32787,0.43516 -13.0363,-63.49006 -14.55544,-72.83858c-0.5421,-3.69645 -0.86987,-4.0243 -1.95526,-2.39103c-0.76314,0.97769 -14.78896,26.20048 -31.09877,55.98409c-16.41721,29.89099 -29.90596,54.13606 -30.12071,53.91561c-0.10737,-0.1074 7.06846,-26.6367 15.98583,-58.81206c8.90042,-32.17537 16.62466,-59.99889 16.94704,-61.63226c0.76339,-2.82587 -0.10707,-2.39079 -12.61032,6.19287c-39.90073,27.38972 -52.29654,35.65123 -51.53334,34.23834c0.5427,-0.87033 10.44122,-15.65452 21.96217,-32.93665c11.63398,-17.17473 20.98419,-31.41641 20.76943,-31.52382c-0.21475,-0.2148 -27.72381,7.60386 -61.20725,17.38861c-33.48344,9.7791 -60.9925,17.60341 -61.09986,17.38297c-0.10737,-0.1074 24.6783,-14.34704 55.12198,-31.62667c30.55105,-17.17223 55.33674,-31.51925 55.12198,-31.62667c-0.2204,-0.22046 -17.39622,-3.59129 -38.26835,-7.50519c-20.76474,-3.91389 -38.04797,-7.17735 -38.26837,-7.39781c-0.32777,-0.32786 13.37291,-3.04463 73.60163,-14.77577l3.69647,-0.75687l-4.78117,-2.82661c-2.71839,-1.52073 -27.393,-15.11128 -54.89338,-30.22822c-27.50038,-15.11695 -50.76777,-27.83691 -51.63245,-28.37961c-0.87033,-0.55401 -1.30547,-0.98926 -0.87027,-0.98921z"/>
	
	<path d="m159.5888,217.38325c0.8853,-2.52476 3.27891,-6.55782 5.04297,-8.82682c1.8952,-2.14441 4.91836,-6.30862 6.81357,-8.95798l3.40351,-5.04297l0.38035,-194.62947l30.52008,0.19998c0,213.29789 -0.62955,195.4394 8.07268,205.15153c7.19392,7.81692 8.83338,12.10573 8.83338,21.94246c0,10.09248 -2.52476,16.26994 -9.58753,22.82776c-7.18737,6.81357 -11.98114,8.70223 -22.45397,8.70223c-10.46628,0 -15.26005,-1.88865 -22.45397,-8.70223c-8.70223,-8.06611 -12.48608,-22.32281 -8.57107,-32.66449z"/>
</svg>