<svg width="576" height="512" viewBox="0 0 576 512" xmlns="http://www.w3.org/2000/svg">
  <path d="m565.5,338.9l-94.6,-118.2c-4.5,-5.6 -13,-6 -18,-0.9l-28.1,28.9c-4.2,4.3 -4.5,11.1 -0.8,15.9l44.3,55.4l-92.3,0l-32,64l-112,0l-32,-64l-92.4,0l43.8,-54.7c3.7,-4.7 3.5,-11.4 -0.6,-15.7l-27.6,-29.5c-5,-5.3 -13.6,-5 -18.1,0.7l-94.4,118c-7,8.6 -10.7,19.1 -10.7,30l0,95.2c0,26.5 21.5,48 48,48l480,0c26.5,0 48,-21.5 48,-48l0,-95.2c0,-10.9 -3.7,-21.4 -10.5,-29.9z"/>
  <path d="m250.5,0l68.6,0c9.5,0 17.1,7.7 17.1,17.1l0,142.9l68.3,0c17.8,0 26.7,21.5 14.1,34.1l-119.4,120c-7.9,7.9 -20.9,7.8 -28.6,-0.3l-113.6,-120c-12.1,-12.7 -3.1,-33.8 14.5,-33.8l61.9,0l0,-142.9c0,-9.4 7.7,-17.1 17.1,-17.1z" fill="#ff0000"/>
</svg>