<svg xmlns="http://www.w3.org/2000/svg" viewBox="0 0 512 512">
	<path fill="#000000" d="m 255.99889,512.00112 c 88.22402,0 159.99999,-71.775 159.99999,-160 v -181.933 l 32.419,34.512 c 9.276,9.875 24.883,10.11899 34.464,0.539 l 10.775,-10.77499 c 9.372,-9.373 9.372,-24.56802 0,-33.94099 l -92.686,-92.686015 c -9.373,-9.373 -24.56799,-9.373 -33.941,0 l -92.686,92.686015 c -9.373,9.37297 -9.373,24.56799 0,33.94101 l 10.775,10.77499 c 9.581,9.58099 25.187,9.337 34.464,-0.53899 l 32.41601,-34.51203 v 181.933 c 0,52.93498 -43.065,96 -96,96 -13.958,0 -27.228,-2.996 -39.204,-8.376 -9.039,-4.061 -19.62601,-2.284 -26.633,4.723 l -12.183,12.183 c -11.499,11.499 -8.52601,30.965 5.98199,38.312 21.66201,10.972 46.14101,17.158 72.03801,17.158 z m 39.204,-439.623995 c -11.976,-5.38 -25.24599,-8.376 -39.204,-8.376 -52.935,0 -96,43.065025 -96,96.000045 v 181.933 l 32.41899,-34.512 c 9.27601,-9.875 24.88302,-10.11901 34.464,-0.53899 l 10.77502,10.77496 c 9.37198,9.37301 9.37198,24.56802 0,33.94102 l -92.68602,92.68596 c -9.37297,9.373 -24.56799,9.373 -33.94097,0 L 18.343875,351.59913 c -9.373,-9.37299 -9.373,-24.56801 0,-33.94099 l 10.77501,-10.77501 c 9.581,-9.58099 25.187,-9.33699 34.464,0.539 l 32.416,34.51199 v -181.933 c 0,-88.224995 71.776035,-159.999995 160.000005,-159.999995 25.89703,0 50.37599,6.186 72.03899,17.157 14.508,7.347 17.481,26.813 5.98202,38.312 l -12.183,12.183 c -7.00799,7.008 -17.59499,8.786 -26.63401,4.724 z"/>
</svg>