<svg xmlns="http://www.w3.org/2000/svg" viewBox="0 0 512 512">
	<path fill="#000000" d="m 500,384 c 6.6,0 12,5.4 12,12 v 40 c 0,6.6 -5.4,12 -12,12 H 12 C 5.4,448 0,442.6 0,436 V 76 C 0,69.4 5.4,64 12,64 h 40 c 6.6,0 12,5.4 12,12 v 308 z" />
	<path fill="#000000" d="M 227.79492 135.03516 C 208.45616 135.03516 192.7793 150.71202 192.7793 170.05078 C 192.7793 173.1657 193.31945 176.13559 194.07812 179.00977 L 120.03516 253.05273 C 117.16098 252.29406 114.19109 251.75391 111.07617 251.75391 C 91.737416 251.75391 76.060547 267.43077 76.060547 286.76953 C 76.060547 306.1083 91.737416 321.78516 111.07617 321.78516 C 130.41494 321.78516 146.0918 306.1083 146.0918 286.76953 C 146.0918 283.65461 145.55164 280.68474 144.79297 277.81055 L 218.83594 203.76758 C 221.71013 204.52625 224.68 205.06641 227.79492 205.06641 C 232.28128 205.06641 236.52612 204.14664 240.47266 202.60742 L 310.02344 258.24609 C 309.76812 259.9458 309.50586 261.65312 309.50586 263.42578 C 309.50586 274.78869 314.92131 284.88214 323.30859 291.2793 L 356.11523 291.2793 L 356.11523 230.4707 C 352.47804 229.17232 348.59082 228.40234 344.50586 228.40234 C 340.0195 228.40234 335.77468 229.32211 331.82812 230.86133 L 262.29297 175.23047 C 262.54829 173.53076 262.81055 171.82344 262.81055 170.05078 C 262.81055 150.71202 247.13369 135.03516 227.79492 135.03516 z M 475.44141 138.04297 L 475.44141 202.06055 C 487.69975 196.61171 496.24805 184.33071 496.24805 170.05078 C 496.24805 155.77086 487.69975 143.49137 475.44141 138.04297 z " />
	<path fill="#000000" d="m 495.38672,367.77927 h -162.5 v -62.5 h 38.67187 V 182.4277 q -10.54687,2.73438 -28.90625,2.73438 -5.85937,0 -9.76562,-0.58594 v -60.15625 q 2.34375,0.19531 4.88281,0.19531 25.58594,0 47.46094,-9.96093 22.26562,-10.15625 31.83594,-24.023441 h 40.82031 V 305.27927 h 37.5 z" />
</svg>
