<?xml version="1.0" encoding="UTF-8" standalone="no"?>
<svg
   xmlns:dc="http://purl.org/dc/elements/1.1/"
   xmlns:cc="http://creativecommons.org/ns#"
   xmlns:rdf="http://www.w3.org/1999/02/22-rdf-syntax-ns#"
   xmlns:svg="http://www.w3.org/2000/svg"
   xmlns="http://www.w3.org/2000/svg"
   xmlns:sodipodi="http://sodipodi.sourceforge.net/DTD/sodipodi-0.dtd"
   xmlns:inkscape="http://www.inkscape.org/namespaces/inkscape"
   viewBox="0 0 512 512"
   version="1.1"
   id="svg817"
   sodipodi:docname="FA_Trend_5.svg"
   inkscape:version="0.92.4 (5da689c313, 2019-01-14)">
  <metadata
     id="metadata823">
    <rdf:RDF>
      <cc:Work
         rdf:about="">
        <dc:format>image/svg+xml</dc:format>
        <dc:type
           rdf:resource="http://purl.org/dc/dcmitype/StillImage" />
        <dc:title />
      </cc:Work>
    </rdf:RDF>
  </metadata>
  <defs
     id="defs821" />
  <sodipodi:namedview
     pagecolor="#ffffff"
     bordercolor="#666666"
     borderopacity="1"
     objecttolerance="10"
     gridtolerance="10"
     guidetolerance="10"
     inkscape:pageopacity="0"
     inkscape:pageshadow="2"
     inkscape:window-width="1920"
     inkscape:window-height="1017"
     id="namedview819"
     showgrid="false"
     inkscape:zoom="0.3857422"
     inkscape:cx="-831.53337"
     inkscape:cy="210.35097"
     inkscape:window-x="-8"
     inkscape:window-y="-8"
     inkscape:window-maximized="1"
     inkscape:current-layer="svg817" />
  <path
     d="m 500,384 c 6.6,0 12,5.4 12,12 v 40 c 0,6.6 -5.4,12 -12,12 H 12 C 5.4,448 0,442.6 0,436 V 76 C 0,69.4 5.4,64 12,64 h 40 c 6.6,0 12,5.4 12,12 v 308 z"
     id="path815"
     inkscape:connector-curvature="0"
     sodipodi:nodetypes="sssssssssscs" />
  <path
     style="fill:currentColor;stroke-width:0.72948939"
     d="m 227.79492,135.03711 c -19.3387,0 -35.01562,15.67491 -35.01562,35.01367 0,3.11492 0.54022,6.08481 1.29882,8.95899 l -74.04296,74.04296 c -2.8742,-0.75867 -5.84409,-1.29882 -8.95899,-1.29882 -19.338698,0 -35.015623,15.67686 -35.015623,35.01562 0,19.33877 15.676925,35.01563 35.015623,35.01563 19.3388,0 35.01563,-15.67686 35.01563,-35.01563 0,-3.11492 -0.54013,-6.08284 -1.29883,-8.95703 l 74.04492,-74.04297 c 2.8742,0.75867 5.84213,1.29688 8.95703,1.29688 4.4864,0 8.73309,-0.91781 12.67969,-2.45703 l 19.12891,15.30273 2.99609,-51.66602 c -1.89696,-17.54825 -16.75207,-31.20898 -34.80469,-31.20898 z"
     id="path1950-4-4"
     inkscape:connector-curvature="0"
     sodipodi:nodetypes="ssccssssccscccs" />
  <g
     aria-label="5"
     style="font-style:normal;font-variant:normal;font-weight:800;font-stretch:normal;font-size:400px;line-height:1.25;font-family:'Rockwell Extra Bold';-inkscape-font-specification:'Rockwell Extra Bold, Ultra-Bold';font-variant-ligatures:normal;font-variant-caps:normal;font-variant-numeric:normal;font-feature-settings:normal;text-align:start;letter-spacing:0px;word-spacing:0px;writing-mode:lr-tb;text-anchor:start;fill:#000000;fill-opacity:1;stroke:none"
     id="text3132">
    <path
       d="m 260.99786,291.18607 70.70313,-4.49219 q 9.375,22.26562 36.13281,22.26562 15.82031,0 26.75781,-8.59375 10.54688,-8.59375 10.54688,-26.95312 0,-17.96875 -10.54688,-26.36719 -10.74218,-8.20312 -25,-8.20312 -21.875,0 -36.71875,16.01562 L 273.69318,233.9595 281.8963,92.553253 H 482.09161 V 163.647 h -45.89843 l -6.44532,-16.60156 h -97.07031 l -2.34375,53.90625 q 26.17188,-16.40625 62.30469,-16.40625 44.14062,0 73.04687,23.63281 28.90625,23.63282 28.90625,64.84375 0,40.23438 -30.46875,66.99219 -30.66406,26.75781 -85.35156,26.75781 -48.04687,0 -79.49219,-20.3125 -31.25,-20.11718 -38.28125,-55.27343 z"
       style=""
       id="path3032" />
  </g>
</svg>
