<?xml version="1.0" encoding="UTF-8" standalone="no"?>
<svg
   xmlns:dc="http://purl.org/dc/elements/1.1/"
   xmlns:cc="http://creativecommons.org/ns#"
   xmlns:rdf="http://www.w3.org/1999/02/22-rdf-syntax-ns#"
   xmlns:svg="http://www.w3.org/2000/svg"
   xmlns="http://www.w3.org/2000/svg"
   xmlns:sodipodi="http://sodipodi.sourceforge.net/DTD/sodipodi-0.dtd"
   xmlns:inkscape="http://www.inkscape.org/namespaces/inkscape"
   viewBox="0 0 512 512"
   version="1.1"
   id="svg817"
   sodipodi:docname="FA_Trend.svg"
   inkscape:version="0.92.4 (5da689c313, 2019-01-14)">
  <metadata
     id="metadata823">
    <rdf:RDF>
      <cc:Work
         rdf:about="">
        <dc:format>image/svg+xml</dc:format>
        <dc:type
           rdf:resource="http://purl.org/dc/dcmitype/StillImage" />
        <dc:title></dc:title>
      </cc:Work>
    </rdf:RDF>
  </metadata>
  <defs
     id="defs821" />
  <sodipodi:namedview
     pagecolor="#ffffff"
     bordercolor="#666666"
     borderopacity="1"
     objecttolerance="10"
     gridtolerance="10"
     guidetolerance="10"
     inkscape:pageopacity="0"
     inkscape:pageshadow="2"
     inkscape:window-width="1920"
     inkscape:window-height="1017"
     id="namedview819"
     showgrid="false"
     inkscape:zoom="0.54552185"
     inkscape:cx="-478.67637"
     inkscape:cy="164.80891"
     inkscape:window-x="-8"
     inkscape:window-y="-8"
     inkscape:window-maximized="1"
     inkscape:current-layer="svg817" />
  <path
     d="m 500,384 c 6.6,0 12,5.4 12,12 v 40 c 0,6.6 -5.4,12 -12,12 H 12 C 5.4,448 0,442.6 0,436 V 76 C 0,69.4 5.4,64 12,64 h 40 c 6.6,0 12,5.4 12,12 v 308 z"
     id="path815"
     inkscape:connector-curvature="0"
     sodipodi:nodetypes="sssssssssscs" />
  <path
     d="m 448.55307,202.60833 c 3.94653,1.53922 8.19216,2.45838 12.67852,2.45838 19.33877,0 35.01549,-15.67673 35.01549,-35.0155 0,-19.33876 -15.67672,-35.01549 -35.01549,-35.01549 -19.33876,0 -35.01549,15.67673 -35.01549,35.01549 0,1.77266 0.26991,3.47237 0.51794,5.17208 l -69.54952,55.63816 c -3.93924,-1.53922 -8.19217,-2.45838 -12.67853,-2.45838 -4.48636,0 -8.73198,0.91916 -12.67852,2.45838 l -69.53493,-55.63086 c 0.25532,-1.69971 0.51794,-3.40672 0.51794,-5.17938 0,-19.33876 -15.67673,-35.01549 -35.0155,-35.01549 -19.33876,0 -35.01548,15.67673 -35.01548,35.01549 0,3.11492 0.53982,6.08395 1.29849,8.95813 l -74.04318,74.04317 c -2.87418,-0.75867 -5.84321,-1.29849 -8.95813,-1.29849 -19.33876,0 -35.015487,15.67673 -35.015487,35.01549 0,19.33877 15.676727,35.01549 35.015487,35.01549 19.33877,0 35.01549,-15.67672 35.01549,-35.01549 0,-3.11492 -0.53982,-6.08394 -1.29849,-8.95813 l 74.04317,-74.04317 c 2.87419,0.75867 5.84321,1.2985 8.95813,1.2985 4.48636,0 8.73199,-0.91916 12.67853,-2.45838 l 69.54952,55.63815 c -0.25532,1.69971 -0.51794,3.40671 -0.51794,5.17937 0,19.33877 15.67673,35.01549 35.01549,35.01549 19.33877,0 35.01549,-15.67672 35.01549,-35.01549 0,-1.77266 -0.26991,-3.47237 -0.51793,-5.17208 z"
     id="path1950"
     inkscape:connector-curvature="0"
     style="fill:currentColor;stroke-width:0.72948939"
     sodipodi:nodetypes="cssssccsccsssccssssccsccssscc" />
</svg>
