<svg xmlns="http://www.w3.org/2000/svg" viewBox="0 0 512 512">
	<path d="m 500,384 c 6.6,0 12,5.4 12,12 v 40 c 0,6.6 -5.4,12 -12,12 H 12 C 5.4,448 0,442.6 0,436 V 76 C 0,69.4 5.4,64 12,64 h 40 c 6.6,0 12,5.4 12,12 v 308 z"/>
	<path d="M 461.23242 135.03516 C 441.89366 135.03516 426.2168 150.71202 426.2168 170.05078 C 426.2168 171.82344 426.48633 173.52295 426.73438 175.22266 L 357.18359 230.86133 C 353.24435 229.32211 348.99222 228.40234 344.50586 228.40234 C 340.0195 228.40234 335.77468 229.32211 331.82812 230.86133 L 316.32227 218.45508 L 316.32227 284.17969 C 317.54249 285.83498 318.90787 287.37438 320.39453 288.78906 L 348.42773 288.78906 C 353.569 288.78906 357.72003 291.17744 360.35547 294.65234 C 371.73369 288.87049 379.53516 277.0635 379.53516 263.42578 C 379.53516 261.65312 379.2656 259.95362 379.01758 258.25391 L 448.55273 202.60742 C 452.49926 204.14664 456.74606 205.06641 461.23242 205.06641 C 480.57119 205.06641 496.24805 189.38955 496.24805 170.05078 C 496.24805 150.71202 480.57119 135.03516 461.23242 135.03516 z M 211.16211 139.23242 C 200.21538 145.15248 192.7793 156.73205 192.7793 170.05078 C 192.7793 173.1657 193.31945 176.13559 194.07812 179.00977 L 120.03516 253.05273 C 117.16098 252.29406 114.19109 251.75391 111.07617 251.75391 C 91.737416 251.75391 76.060547 267.43077 76.060547 286.76953 C 76.060547 306.1083 91.737416 321.78516 111.07617 321.78516 C 130.41494 321.78516 146.0918 306.1083 146.0918 286.76953 C 146.0918 283.65461 145.55164 280.68474 144.79297 277.81055 L 218.83594 203.76758 C 221.71013 204.52625 224.68 205.06641 227.79492 205.06641 C 232.28128 205.06641 236.52612 204.14664 240.47266 202.60742 L 255.95117 214.99023 L 255.95117 149.23633 C 255.16348 148.1725 254.31464 147.15996 253.41406 146.19336 L 223.8457 146.19336 C 218.18001 146.19336 213.71826 143.29197 211.16211 139.23242 z " />
	<path d="m 346.42499,326.99049 -49.63142,49.63142 c -5.87397,5.87397 -15.39655,5.87398 -21.27052,0 l -49.63141,-49.63142 c -9.47495,-9.47495 -2.76434,-25.67616 10.63557,-25.67553 h 32.06276 l -6.2e-4,-167.44126 h -32.10538 c -13.39992,0 -20.11051,-16.20058 -10.63558,-25.67616 L 275.4798,58.566124 c 5.87398,-5.873979 15.39656,-5.873979 21.27053,0 l 49.63143,49.631416 c 9.47493,9.47496 2.76433,25.67616 -10.63558,25.67616 h -32.06276 l 6.2e-4,167.44063 h 32.10539 c 13.3999,0 20.11051,16.20058 10.63556,25.67616 z"/>
</svg>