<svg width="962" height="1683" xmlns="http://www.w3.org/2000/svg">
  <path d="m599.928579,1261.641294q0,75.038164 -52.406249,127.564893t-127.272324,52.526719t-127.272324,-52.526719t-52.406249,-127.564893q0,-74.100203 52.406249,-127.095903t127.272324,-52.995709t127.272324,52.995709t52.406249,127.095903zm119.785716,0q0,-72.224241 -31.818084,-135.068711t-87.967632,-105.053448l0,-720.366448q0,-75.038174 -52.406249,-127.564893t-127.272324,-52.526719t-127.272324,52.526719t-52.406249,127.564893l0,720.366448q-56.149559,42.208977 -87.967632,105.053448t-31.818084,135.068711q0,124.75096 87.499717,212.451818t211.964572,87.700868t211.964572,-87.700868t87.499717,-212.451818zm119.785716,0q0,173.525765 -123.06111,296.869763t-296.188895,123.343998t-296.188905,-123.343998t-123.0611,-296.869763q0,-170.711841 119.785716,-293.586849l0,-666.901758q0,-124.75096 87.499717,-212.451818t211.964572,-87.700868t211.964562,87.700868t87.499727,212.451818l0,666.901758q119.785716,122.875008 119.785716,293.586849zm119.785716,-540.274846l0,120.061075l-179.678574,0l0,-120.061075l179.678574,0zm0,-240.122149l0,120.061075l-179.678574,0l0,-120.061075l179.678574,0zm0,-240.122149l0,120.061075l-179.678574,0l0,-120.061075l179.678574,0z"/>
</svg>