<svg width="962" height="1683" xmlns="http://www.w3.org/2000/svg">
  <path d="m599.92852,1260.57332q0,74.9746 -52.40624,127.45682t-127.27231,52.48222t-127.27231,-52.48222t-52.40624,-127.45682q0,-56.23095 32.7539,-103.09008t87.0318,-66.53996l0,-130.26837l119.7857,0l0,130.26837q54.2779,19.68083 87.0318,66.53996t32.7539,103.09008zm119.7857,0q0,-72.16306 -31.81808,-134.95428t-87.96763,-104.96444l0,-719.75619q0,-74.9746 -52.40624,-127.45682t-127.27231,-52.48222t-127.27231,52.48222t-52.40624,127.45682l0,719.75619q-56.14955,42.17321 -87.96763,104.96444t-31.81808,134.95428q0,124.64528 87.49971,212.27184t211.96454,87.62657t211.96454,-87.62657t87.49971,-212.27184l0.00002,0zm119.7857,0q0,173.37877 -123.06109,296.61827t-296.18887,123.2395t-296.18887,-123.2395t-123.06109,-296.61827q0,-170.56722 119.7857,-293.33813l0,-666.33678q0,-124.64528 87.49971,-212.27184t211.96454,-87.62657t211.96454,87.62657t87.49971,212.27184l0,666.33678q119.7857,122.77091 119.7857,293.33813l0.00002,0zm119.7857,-539.81714l0,119.95936l-179.67855,0l0,-119.95936l179.67855,0zm0,-239.91873l0,119.95936l-179.67855,0l0,-119.95936l179.67855,0zm0,-239.91873l0,119.95936l-179.67855,0l0,-119.95936l179.67855,0z"/>
</svg>