<svg xmlns="http://www.w3.org/2000/svg" viewBox="0 0 512 512">
	<path fill="#FFFFFF" d="m 12,384 c -6.6,0 -12,5.4 -12,12 v 40 c 0,6.6 5.4,12 12,12 h 488 c 6.6,0 12,-5.4 12,-12 V 76 c 0,-6.6 -5.4,-12 -12,-12 h -40 c -6.6,0 -12,5.4 -12,12 v 308 z"/>
	<path fill="#FFFFFF" d="m 386.55307,202.60833 c 3.94653,1.53922 8.19216,2.45838 12.67852,2.45838 19.33877,0 35.01549,-15.67673 35.01549,-35.0155 0,-19.33876 -15.67672,-35.01549 -35.01549,-35.01549 -19.33876,0 -35.01549,15.67673 -35.01549,35.01549 0,1.77266 0.26991,3.47237 0.51794,5.17208 l -69.54952,55.63816 c -3.93924,-1.53922 -8.19217,-2.45838 -12.67853,-2.45838 -4.48636,0 -8.73198,0.91916 -12.67852,2.45838 l -69.53493,-55.63086 c 0.25532,-1.69971 0.51794,-3.40672 0.51794,-5.17938 0,-19.33876 -15.67673,-35.01549 -35.0155,-35.01549 -19.33876,0 -35.01548,15.67673 -35.01548,35.01549 0,3.11492 0.53982,6.08395 1.29849,8.95813 l -74.04318,74.04317 c -2.87418,-0.75867 -5.84321,-1.29849 -8.95813,-1.29849 -19.33876,0 -35.015487,15.67673 -35.015487,35.01549 0,19.33877 15.676727,35.01549 35.015487,35.01549 19.33877,0 35.01549,-15.67672 35.01549,-35.01549 0,-3.11492 -0.53982,-6.08394 -1.29849,-8.95813 l 74.04317,-74.04317 c 2.87419,0.75867 5.84321,1.2985 8.95813,1.2985 4.48636,0 8.73199,-0.91916 12.67853,-2.45838 l 69.54952,55.63815 c -0.25532,1.69971 -0.51794,3.40671 -0.51794,5.17937 0,19.33877 15.67673,35.01549 35.01549,35.01549 19.33877,0 35.01549,-15.67672 35.01549,-35.01549 0,-1.77266 -0.26991,-3.47237 -0.51793,-5.17208 z" />
</svg>