<svg width="640" height="512" xmlns="http://www.w3.org/2000/svg">
  <path d="m224,257c70.7,0 128,-57.3 128,-128s-57.3,-128 -128,-128s-128,57.3 -128,128s57.3,128 128,128zm201.2,226.5c-2.3,-1.2 -4.6,-2.6 -6.8,-3.9l-7.9,4.6c-6,3.4 -12.8,5.3 -19.6,5.3c-10.9,0 -21.4,-4.6 -28.9,-12.6c-18.3,-19.8 -32.3,-43.9 -40.2,-69.6c-5.5,-17.7 1.9,-36.4 17.9,-45.7l7.9,-4.6c-0.1,-2.6 -0.1,-5.2 0,-7.8l-7.9,-4.6c-16,-9.2 -23.4,-28 -17.9,-45.7c0.9,-2.9 2.2,-5.8 3.2,-8.7c-3.8,-0.3 -7.5,-1.2 -11.4,-1.2l-16.7,0c-22.2,10.2 -46.9,16 -72.9,16s-50.6,-5.8 -72.9,-16l-16.7,0c-74.2,0 -134.4,60.2 -134.4,134.4l0,41.6c0,26.5 21.5,48 48,48l352,0c10.1,0 19.5,-3.2 27.2,-8.5c-1.2,-3.8 -2,-7.7 -2,-11.8l0,-9.2z"/>
  <path fill="#666666" d="m610.5,373.3c2.6,-14.1 2.6,-28.5 0,-42.6l25.8,-14.9c3,-1.7 4.3,-5.2 3.3,-8.5c-6.7,-21.6 -18.2,-41.2 -33.2,-57.4c-2.3,-2.5 -6,-3.1 -9,-1.4l-25.8,14.9c-10.9,-9.3 -23.4,-16.5 -36.9,-21.3l0,-29.8c0,-3.4 -2.4,-6.4 -5.7,-7.1c-22.3,-5 -45,-4.8 -66.2,0c-3.3,0.7 -5.7,3.7 -5.7,7.1l0,29.8c-13.5,4.8 -26,12 -36.9,21.3l-25.8,-14.9c-2.9,-1.7 -6.7,-1.1 -9,1.4c-15,16.2 -26.5,35.8 -33.2,57.4c-1,3.3 0.4,6.8 3.3,8.5l25.8,14.9c-2.6,14.1 -2.6,28.5 0,42.6l-25.8,14.9c-3,1.7 -4.3,5.2 -3.3,8.5c6.7,21.6 18.2,41.1 33.2,57.4c2.3,2.5 6,3.1 9,1.4l25.8,-14.9c10.9,9.3 23.4,16.5 36.9,21.3l0,29.8c0,3.4 2.4,6.4 5.7,7.1c22.3,5 45,4.8 66.2,0c3.3,-0.7 5.7,-3.7 5.7,-7.1l0,-29.8c13.5,-4.8 26,-12 36.9,-21.3l25.8,14.9c2.9,1.7 6.7,1.1 9,-1.4c15,-16.2 26.5,-35.8 33.2,-57.4c1,-3.3 -0.4,-6.8 -3.3,-8.5l-25.8,-14.9zm-114.5,27.2c-26.8,0 -48.5,-21.8 -48.5,-48.5s21.8,-48.5 48.5,-48.5s48.5,21.8 48.5,48.5s-21.7,48.5 -48.5,48.5z" />
</svg>