<svg xmlns="http://www.w3.org/2000/svg" viewBox="0 0 640 512">
<path d="m224,256c70.7,0 128,-57.3 128,-128s-57.3,-128 -128,-128s-128,57.3 -128,128s57.3,128 128,128zm89.6,32l-16.7,0c-22.2,10.2 -46.9,16 -72.9,16s-50.6,-5.8 -72.9,-16l-16.7,0c-74.2,0 -134.4,60.2 -134.4,134.4l0,41.6c0,26.5 21.5,48 48,48l352,0c26.5,0 48,-21.5 48,-48l0,-41.6c0,-74.2 -60.2,-134.4 -134.4,-134.4z"/>
<path fill="#00AA00" d="m636.6,159.6l-27.8,-28.1c-4.6,-4.7 -12.1,-4.7 -16.8,-0.1l-104.8,104l-45.5,-45.8c-4.6,-4.7 -12.1,-4.7 -16.8,-0.1l-28.1,27.9c-4.7,4.6 -4.7,12.1 -0.1,16.8l81.7,82.3c4.6,4.7 12.1,4.7 16.8,0.1l141.3,-140.2c4.6,-4.7 4.7,-12.2 0.1,-16.8z"/>
</svg>