<svg xmlns="http://www.w3.org/2000/svg" viewBox="0 0 512 512">
	<path d="m 74.962891,75 c -95.379769,95.47524 -104.155525,257.84449 0,362 99.396819,99.39679 252.375099,92.40545 344.298829,16.19922 L 470.96289,505 c 6.89999,6.89999 17.19923,8.89922 26.19922,5.19922 8.99999,-3.7 14.80078,-12.49923 14.80078,-22.19922 V 344 c 0,-13.29999 -10.70001,-24 -24,-24 h -144 c -9.69999,0 -18.50117,5.80079 -22.20117,14.80078 -3.7,8.99999 -1.69882,19.29923 5.20117,26.19922 l 46.63281,46.63281 C 314.42887,453.65499 202.12986,473.65137 120.19922,391.7207 40.801436,312.32292 50.018493,190.4444 120.16211,120.30078 180.60008,59.862806 289.23306,38.764332 373.59766,104.42188 L 327,151.02148 c -6.89999,6.9 -8.89922,17.19923 -5.19922,26.19922 3.7,8.99999 12.49923,14.80078 22.19922,14.80078 h 144 c 13.29999,0 24,-10.70001 24,-24 V 24.021484 C 512,14.321494 506.19921,5.5203088 497.19922,1.8203125 488.19923,-1.8796838 477.89999,0.22149122 471,7.0214844 L 419.30078,58.820312 C 319.01675,-24.417507 169.16545,-19.296854 74.962891,75 Z"/>
</svg>