<svg xmlns="http://www.w3.org/2000/svg" viewBox="0 0 384 512">
	<path d="m369.9,97.9l-83.9,-83.9c-9,-9 -21.2,-14.1 -33.9,-14.1l-204.1,0c-26.5,0.1 -48,21.6 -48,48.1l0,416c0,26.5 21.5,48 48,48l288,0c26.5,0 48,-21.5 48,-48l0,-332.1c0,-12.7 -5.1,-25 -14.1,-34zm-37.8,30.1l-76.1,0l0,-76.1l76.1,76.1zm-284.1,336l0,-416l160,0l0,104c0,13.3 10.7,24 24,24l104,0l0,288l-288,0z"/>
	<path fill="#00aa00" d="m304,292l0,24c0,6.6 -5.4,12 -12,12l-76,0l0,76c0,6.6 -5.4,12 -12,12l-24,0c-6.6,0 -12,-5.4 -12,-12l0,-76l-76,0c-6.6,0 -12,-5.4 -12,-12l0,-24c0,-6.6 5.4,-12 12,-12l76,0l0,-76c0,-6.6 5.4,-12 12,-12l24,0c6.6,0 12,5.4 12,12l0,76l76,0c6.6,0 12,5.4 12,12z"/>
</svg>