<svg xmlns="http://www.w3.org/2000/svg" viewBox="0 0 390 410">
	<path d="m3.75261,403.59436c-0.04822,-7.77181 5.4,-11.59436 12,-11.59436c29.74913,0 59.49826,0 89.24739,0c3.35173,1.96638 16.59071,-35.21794 20,-35.20616l70.47013,0l69.52987,0c2.13771,0.16578 16.40873,35.37427 20,35.20616l90.75261,0c6.18763,-0.84628 12.24739,4.4 12.24739,11l-0.26811,15c0.15026,7.00622 -5.43157,13.82119 -11.8686,14c-187.81346,1.01542 -354.21781,0.10279 -360,0c-5.78219,-0.10279 -12.14293,-7.39507 -12.10515,-14l-0.00553,-34l0,19zm364.5,-235.18069l-19.6,-19.6c-4.8,-4.8 -12.5,-4.7 -17.1,0.2l-109.8,113.1l0,-248.8c0,-6.6 -5.4,-12 -12,-12l-28,0c-6.6,0 -12,5.4 -12,12l0,248.8l-109.7,-113.1c-4.7,-4.8 -12.4,-4.9 -17.1,-0.2l-19.6,19.6c-4.7,4.7 -4.7,12.3 0,17l164,164.4c4.7,4.7 12.3,4.7 17,0l164,-164.4c4.6,-4.7 4.6,-12.3 -0.1,-17z"/>
</svg>