<svg xmlns="http://www.w3.org/2000/svg" viewBox="0 0 512 512">
<path fill="#FF0000" d="m 396.39388,0 c -9.62533,0 -17.49338,6.9935301 -18.53784,16.044108 -0.0609,-7.27e-4 -0.12064,-0.0051 -0.18153,-0.0057 2e-5,14.196967 0.0279,29.374441 0.0547,44.787275 v 18.846151 c 0,0.154536 0.0195,0.304277 0.0234,0.457862 0.005,4.636039 0.0176,10.031541 0.0176,14.286445 -2.73728,4.334522 -36.73654,57.663549 -68.57652,107.599619 h 0.57778 l -48.17261,75.17081 c -3.59786,5.03724 -5.79539,11.14044 -5.79539,17.82446 V 450.00315 H 191.84133 V 295.01101 c 0,-6.58715 -2.09953,-12.78722 -5.79734,-17.82446 l -3.41009,-5.32219 -0.0859,-0.004 -26.29889,-41.16779 -18.37583,-28.67696 h 0.0586 L 70.655372,96.699801 v -80.67083 c -0.06615,2.22e-4 -0.131064,0.0034 -0.197148,0.0038 C 69.323023,7.077914 61.505054,0.18352328 51.949666,0.18352328 H 18.664714 C 8.3236971,0.18352328 0,8.2533685 0,18.276661 v 61.580612 c 0,0.731831 0.05618892,1.448255 0.14249363,2.156873 C -0.45419843,95.086911 2.825486,108.62759 10.849036,121.12922 l 117.129774,182.6001 v 146.27383 h -7.99526 c -13.29212,0 -23.985782,10.3651 -23.985782,23.24882 v 15.49921 C 95.997768,501.6349 106.69143,512 119.98355,512 h 207.87674 c 13.29212,0 23.98578,-10.3651 23.98578,-23.24882 v -15.49921 c 0,-12.88372 -10.69366,-23.24882 -23.98578,-23.24882 h -7.99526 V 303.72932 L 436.99481,121.12922 C 444.90999,108.8226 448.21486,95.49155 447.73844,82.58742 447.89645,81.636581 448,80.667223 448,79.671858 V 18.093138 C 448,8.0698451 439.67631,0 429.33529,0 Z"/>
</svg>