<?xml version="1.0" encoding="UTF-8" standalone="no"?>
<!DOCTYPE svg PUBLIC "-//W3C//DTD SVG 1.1//EN" "http://www.w3.org/Graphics/SVG/1.1/DTD/svg11.dtd">
<svg version="1.1" xmlns="http://www.w3.org/2000/svg" xmlns:xlink="http://www.w3.org/1999/xlink" preserveAspectRatio="xMidYMid meet" viewBox="0 0 640 640" width="640" height="640"><defs><path d="M395.18 411.29C396.4 394.26 391.5 378.53 379.76 361.12C379.18 360.29 376.32 356.11 371.16 348.6L371.17 289.26L371.18 229.93C393.48 186.47 405.87 162.33 408.35 157.5C428.86 117.63 445.86 85.25 446.22 85.44C446.39 85.82 434.82 131.49 420.44 186.89C406.06 242.29 393.61 290.2 392.9 293.01C391.86 298.06 392.9 297.51 410.78 284.22C464.6 244.74 497.72 221.15 496.5 223.4C495.63 224.9 479.67 250.36 460.92 279.93C442.34 309.68 427.26 334.2 427.61 334.39C427.78 334.76 472.3 321.1 526.29 304.45C580.1 287.61 624.44 274.14 624.8 274.32C624.97 274.7 585.01 299.21 535.75 328.78C486.67 358.53 446.71 383.05 446.88 383.42C447.23 383.8 475.1 389.41 508.75 396.34C542.23 403.08 570.1 408.89 570.27 409.08C570.8 409.64 446.7 435.82 448.98 437.7C450.56 438.82 392.88 442.93 395.18 411.29Z" id="a1V7gjaQoH"></path><path d="M113 305.32C164.87 320.68 209.57 333.98 212.2 334.53C216.76 335.85 216.06 334.35 202.22 312.82C158.06 244.12 144.74 222.78 147.02 224.09C148.42 225.03 172.26 242.07 199.95 261.91C227.81 281.94 250.77 298.04 250.94 297.67C251.29 297.29 238.5 249.93 222.91 192.28C207.14 134.63 194.53 87.27 194.88 87.08C195.06 86.9 212.76 119.66 234.13 160.08C236.72 164.99 249.69 189.51 273.03 233.65L273.02 291.29L273.02 349.13C269.54 353.73 267.61 356.29 267.23 356.8C253.03 375.52 247.41 392.55 249 412.02C251.44 443.09 197.45 437.49 197.11 437.3C196.75 436.92 169.06 431.12 135.41 424.38C101.93 417.64 74.07 412.02 73.71 411.64C73.18 411.08 95.27 406.4 192.38 386.2C192.77 386.12 194.76 385.68 198.34 384.9C193.71 381.98 191.14 380.36 190.63 380.03C186.24 377.41 146.46 354.01 102.13 327.99C57.79 301.96 20.28 280.06 18.88 279.12C17.48 278.17 16.78 277.42 17.48 277.42C18.01 277.42 61.12 289.97 113 305.32Z" id="bsUZljn40"></path><path d="M280.57 376.39C283.63 372.7 288.5 365.53 291.56 360.97C291.93 360.39 293.75 357.5 297.05 352.29L297.66 17.18C327.18 17.39 343.59 17.5 346.87 17.53C346.87 384.77 345.85 354.03 359.88 370.75C371.48 384.21 374.12 391.59 374.12 408.53C374.12 425.9 370.05 436.54 358.66 447.83C347.08 459.56 339.35 462.82 322.46 462.82C305.59 462.82 297.86 459.56 286.26 447.83C272.23 433.94 266.13 409.4 272.44 391.59C273.87 387.24 277.73 380.3 280.57 376.39Z" id="bVP4tqznT"></path><path d="M16.2 582.82C17.04 583.43 16.1 443.17 16.2 442.92C16.41 442.67 260.4 442.96 260.61 442.83C260.68 442.75 274.13 489.39 300.97 582.74C110.22 582.21 15.3 582.24 16.2 582.82Z" id="a4PU6Hmsya"></path><path d="M363.8 442.73C363.68 442.61 343.34 422.77 323.8 422.82C309.68 422.85 295.75 429.49 282 442.73L323.98 582.64C350.6 489.53 363.87 442.9 363.8 442.73Z" id="b1vYR3MPbo"></path><path d="M623.8 582.82C622.96 583.43 623.9 443.06 623.8 442.82C623.59 442.56 386.48 443.03 386.27 442.91C386.2 442.82 372.75 489.46 345.91 582.81C532.07 582.24 624.7 582.24 623.8 582.82Z" id="a8cKxwC3M"></path></defs><g><g><g><g><use xlink:href="#a1V7gjaQoH" opacity="1" fill="#000000" fill-opacity="1"></use><g><use xlink:href="#a1V7gjaQoH" opacity="1" fill-opacity="0" stroke="#000000" stroke-width="1" stroke-opacity="0"></use></g></g><g><use xlink:href="#bsUZljn40" opacity="1" fill="#000000" fill-opacity="1"></use><g><use xlink:href="#bsUZljn40" opacity="1" fill-opacity="0" stroke="#000000" stroke-width="1" stroke-opacity="0"></use></g></g><g><use xlink:href="#bVP4tqznT" opacity="1" fill="#000000" fill-opacity="1"></use><g><use xlink:href="#bVP4tqznT" opacity="1" fill-opacity="0" stroke="#000000" stroke-width="1" stroke-opacity="0"></use></g></g></g><g><use xlink:href="#a4PU6Hmsya" opacity="1" fill="#000000" fill-opacity="1"></use><g><use xlink:href="#a4PU6Hmsya" opacity="1" fill-opacity="0" stroke="#000000" stroke-width="1" stroke-opacity="0"></use></g></g><g><use xlink:href="#b1vYR3MPbo" opacity="1" fill="#000000" fill-opacity="1"></use><g><use xlink:href="#b1vYR3MPbo" opacity="1" fill-opacity="0" stroke="#000000" stroke-width="1" stroke-opacity="0"></use></g></g><g><use xlink:href="#a8cKxwC3M" opacity="1" fill="#000000" fill-opacity="1"></use><g><use xlink:href="#a8cKxwC3M" opacity="1" fill-opacity="0" stroke="#000000" stroke-width="1" stroke-opacity="0"></use></g></g></g></g></svg>