<svg xmlns="http://www.w3.org/2000/svg" viewBox="0 0 512 512">
	<path fill="#ff0000" d="M 256,8 C 119,8 8,119 8,256 8,393 119,504 256,504 393,504 504,393 504,256 504,119 393,8 256,8 Z"/>
	<path fill="#ffffff" d="m 182.44922,130.8254 c -3.075,0 -6.15,1.17539 -8.5,3.52539 l -39.59961,39.59961 c -4.7,4.7 -4.7,12.3 0,17 l 65.59961,65.09961 -65.59961,64.99999 c -4.7,4.7 -4.7,12.3 0,17 l 39.5,39.59961 c 4.7,4.69999 12.3,4.69999 17,0 l 65.09961,-65.59961 65,65.59961 c 4.7,4.69999 12.3,4.69999 17,0 l 39.59961,-39.5 c 4.7,-4.70001 4.7,-12.30001 0,-17 l -65.59961,-65.0996 65.70117,-65 c 4.7,-4.7 4.7,-12.3 0,-17 L 338.04883,134.4504 c -4.7,-4.7 -12.3,-4.7 -17,0 l -65.09961,65.59961 -65,-65.69922 c -2.35,-2.35 -5.425,-3.52539 -8.5,-3.52539 z"/>
</svg>