<svg xmlns="http://www.w3.org/2000/svg" viewBox="0 0 512 512">
	<path fill="#4682B4" d="M 256,8 C 119.043,8 8,119.083 8,256 8,392.997 119.043,504 256,504 392.957,504 504,392.997 504,256 504,119.083 392.957,8 256,8 Z"/>
	<path fill="#ffffff" d="m 256,118 c -23.196,0 -42,18.804 -42,42 0,23.196 18.804,42 42,42 23.196,0 42,-18.804 42,-42 0,-23.196 -18.804,-42 -42,-42 z m -44,106 c -6.627,0 -12,5.373 -12,12 v 24 c 0,6.627 5.373,12 12,12 h 12 v 64 h -12 c -6.627,0 -12,5.373 -12,12 v 24 c 0,6.627 5.373,12 12,12 h 88 c 6.62705,0 11.99995,-5.373 11.99995,-12 v -24 c 0,-6.627 -5.3729,-12 -11.99995,-12 H 288 V 236 c 0,-6.627 -5.373,-12 -12,-12 z"/>
</svg>
