<svg xmlns="http://www.w3.org/2000/svg" viewBox="0 0 512 512">
	<path fill="#4682B4" d="M 504,256 C 504,392.997 392.957,504 256,504 119.043,504 8,392.997 8,256 8,119.083 119.043,8 256,8 392.957,8 504,119.083 504,256 Z"/>
	<path fill="#ffffff" d="M 262.6543 90 C 208.1573 90 173.39947 112.95681 146.10547 153.75781 C 142.56947 159.04381 143.75231 166.17262 148.82031 170.01562 L 183.51953 196.32617 C 188.72453 200.27317 196.14155 199.33312 200.18555 194.20312 C 218.04955 171.54512 230.29828 158.40625 257.48828 158.40625 C 277.91728 158.40625 303.18555 171.55523 303.18555 191.36523 C 303.18555 206.34123 290.82334 214.0328 270.65234 225.3418 C 247.12834 238.5288 216 254.941 216 296 L 216 300 C 216 306.627 221.373 312 228 312 L 284 312 C 290.627 312 296 306.627 296 300 L 296 298.66797 C 296 270.20597 379.18555 269.02 379.18555 192 C 379.18555 133.998 319.0203 90 262.6543 90 z M 256 338 C 230.635 338 210 358.635 210 384 C 210 409.364 230.635 430 256 430 C 281.365 430 302 409.364 302 384 C 302 358.635 281.365 338 256 338 z "/>
</svg>