<svg xmlns="http://www.w3.org/2000/svg" viewBox="0 0 512 512">
	<path fill="#00aa00" d="M 504,256 C 504,392.967 392.967,504 256,504 119.033,504 8,392.967 8,256 8,119.033 119.033,8 256,8 392.967,8 504,119.033 504,256 Z"/>
	<path fill="#ffffff" d="m 377.375,153.37386 c -4.09488,0 -8.18996,1.56104 -11.31446,4.68554 L 216,308.118 145.9414,238.0594 c -6.248,-6.248 -16.37795,-6.248 -22.62695,0 l -22.62695,22.62696 c -6.248,6.248 -6.248,16.37895 0,22.62695 l 104,104 c 6.249,6.249 16.37795,6.248 22.62695,0 l 184,-184 c 6.248,-6.248 6.248,-16.37895 0,-22.62695 L 388.6875,158.0594 c -3.124,-3.1245 -7.21763,-4.68554 -11.3125,-4.68554 z"/>
</svg>