<svg xmlns="http://www.w3.org/2000/svg" viewBox="0 0 500 464">
	<path fill="#feca28" d="M 281.21467,18.912125 495.25819,411.32522 c 6.50305,11.70551 6.31725,23.41102 -0.55741,35.11652 -3.15863,5.38825 -7.47852,9.66169 -12.95967,12.82032 C 476.25997,462.42069 470.36077,464 464.04351,464 H 35.956491 c -6.317257,0 -12.216462,-1.57931 -17.697615,-4.73794 -5.481145,-3.15863 -9.8010315,-7.43207 -12.9596604,-12.82032 -6.8746582,-11.7055 -7.0604597,-23.41101 -0.5574044,-35.11652 L 218.78531,18.912125 c 3.15863,-5.759849 7.52497,-10.311991 13.09902,-13.656424 5.57405,-3.344427 11.61261,-5.016641 18.11566,-5.016641 6.50306,0 12.54161,1.672214 18.11566,5.016641 5.57405,3.344433 9.94039,7.896575 13.09902,13.656424 z"/>
	<path fill="#241e20" d="m 219.34222,142.93601 c -2.04381,0 -4.27403,1.02063 -6.68945,3.06445 -1.85801,1.30062 -2.78711,3.25229 -2.78711,5.85352 l 4.73828,127.36719 c 0,1.85801 0.92909,3.38994 2.78711,4.59765 1.85801,1.20771 4.08823,1.8125 6.68945,1.8125 h 51.5586 c 2.60122,0 4.78566,-0.60479 6.55078,-1.8125 1.76511,-1.20771 2.73998,-2.73964 2.92578,-4.59765 l 5.01563,-127.92578 c 0,-2.22962 -0.92715,-3.99431 -2.78516,-5.29493 -2.41543,-2.04382 -4.64563,-3.06445 -6.68945,-3.06445 z m 3.90235,178.36914 c -2.41542,0 -4.50637,0.88137 -6.27149,2.64648 -1.76512,1.76512 -2.64843,3.94957 -2.64844,6.55079 v 52.95312 c 0,2.60122 0.88332,4.78371 2.64844,6.54883 1.76512,1.76511 3.85607,2.64844 6.27149,2.64844 h 53.50976 c 2.41543,0 4.50637,-0.88333 6.27149,-2.64844 1.76511,-1.76512 2.64648,-3.94761 2.64648,-6.54883 v -52.95312 c 0,-2.60122 -0.88137,-4.78567 -2.64648,-6.55079 -1.76512,-1.76511 -3.85606,-2.64648 -6.27149,-2.64648 z"/>
</svg>