<svg xmlns="http://www.w3.org/2000/svg" viewBox="0 0 512 512">
	<path fill="#000000" d="M 148.41602 3.8886719 L 148.41602 119.89844 L 362.9375 119.89844 L 362.9375 3.8886719 L 148.41602 3.8886719 z M 148.41602 200.26367 L 148.41602 311.79297 L 362.9375 311.79297 L 362.9375 200.26367 L 148.41602 200.26367 z M 148.41602 392.15625 L 148.41602 507.46289 L 362.9375 507.46289 L 362.9375 392.15625 L 148.41602 392.15625 z "/>
	<path fill="#000000" d="M0 168v-16c0-13.255 10.745-24 24-24h360V80c0-21.367 25.899-32.042 40.971-16.971l80 80c9.372 9.373 9.372 24.569 0 33.941l-80 80C409.956 271.982 384 261.456 384 240v-48H24c-13.255 0-24-10.745-24-24zm488 152H128v-48c0-21.314-25.862-32.08-40.971-16.971l-80 80c-9.372 9.373-9.372 24.569 0 33.941l80 80C102.057 463.997 128 453.437 128 432v-48h360c13.255 0 24-10.745 24-24v-16c0-13.255-10.745-24-24-24z"/>
</svg>