<svg xmlns="http://www.w3.org/2000/svg" viewBox="0 0 510 512">
  <path d="m462,63.85075l-102,0c-3.83124,0 -6.11886,3.01269 -6,6.14925c0.11886,3.13656 -0.04558,76.59551 0,80c0.04558,3.40449 -2.11827,5.63048 -6,5.67164c-3.88173,0.04116 -180.52657,0.44157 -184,0.32836c-3.47343,-0.11321 -5.91984,-3.60993 -6,-6.14925c-0.08016,-2.53932 0.03426,-77.49317 0,-79.85075c-0.03426,-2.35758 -2.09403,-6.14925 -6.5,-6.14925l-103.5,0c-26.5,0 -48,21.5 -48,48l0,288c0,26.5 21.5,48 48,48l414,0c26.5,0 48,-21.5 48,-48l0,-288c0,-13.25 -5.375,-25.25 -14.0625,-33.9375c-8.6875,-8.6875 -20.6875,-14.0625 -33.9375,-14.0625z"/>
</svg>