<svg xmlns="http://www.w3.org/2000/svg" viewBox="0 0 700 532">
	<path d="m368,64l-272,0c-53,0 -96,43 -96,96c0,52.4 42.1,94.9 94.3,95.8l-87.9,152.2c-13.3,23 -5.4,52.3 17.6,65.6l55.4,32c23,13.3 52.3,5.4 65.6,-17.6l133.9,-232l89.1,0c8.8,0 16,-7.2 16,-16l0,-160c0,-8.8 -7.2,-16 -16,-16zm-112,384c17.7,0 32,-14.3 32,-32l0,-111.7l-83,143.7l51,0zm376,-384l-176,0c-4.4,0 -8,3.6 -8,8l0,48c0,4.4 3.6,8 8,8l176,0c4.4,0 8,-3.6 8,-8l0,-48c0,-4.4 -3.6,-8 -8,-8zm0,-64l-176,0c-4.4,0 -8,3.6 -8,8l0,16c0,4.4 3.6,8 8,8l176,0c4.4,0 8,-3.6 8,-8l0,-16c0,-4.4 -3.6,-8 -8,-8z"/>
	<path d="m537.691281,216.267759l84.79877,84.79877c3.623878,3.623878 3.623878,9.422085 0,13.045965l-207.467074,207.467074l-87.335485,9.784473c-11.596412,1.268357 -21.56208,-8.516116 -20.293723,-20.293723l9.784473,-87.335484l207.467074,-207.467075c3.62388,-3.623878 9.422086,-3.623878 13.045965,0zm150.39098,32.252524l-35.33282,35.33282c-3.62388,3.62388 -9.422086,3.62388 -13.045965,0l-84.79877,-84.798769c-3.623878,-3.62388 -3.623878,-9.422086 0,-13.045965l35.332821,-35.332821c14.314322,-14.314322 37.507147,-14.314322 51.82147,0l46.023263,46.023265c14.314322,14.314322 14.314322,37.507147 0,51.82147z" fill="#555555"/>
</svg>