<svg xmlns="http://www.w3.org/2000/svg" viewBox="0 0 700 532">
	<path d="m368,64l-272,0c-53,0 -96,43 -96,96c0,52.4 42.1,94.9 94.3,95.8l-87.9,152.2c-13.3,23 -5.4,52.3 17.6,65.6l55.4,32c23,13.3 52.3,5.4 65.6,-17.6l133.9,-232l89.1,0c8.8,0 16,-7.2 16,-16l0,-160c0,-4.4 -1.8,-8.4 -4.7,-11.3c-2.9,-2.9 -6.9,-4.7 -11.3,-4.7zm-112,384c17.7,0 32,-14.3 32,-32l0,-111.7l-83,143.7l51,0zm376,-384l-176,0c-4.4,0 -8,3.6 -8,8l0,48c0,4.4 3.6,8 8,8l176,0c4.4,0 8,-3.6 8,-8l0,-48c0,-4.4 -3.6,-8 -8,-8zm0,-64l-176,0c-4.4,0 -8,3.6 -8,8l0,16c0,4.4 3.6,8 8,8l176,0c4.4,0 8,-3.6 8,-8l0,-16c0,-4.4 -3.6,-8 -8,-8z"/>
	<path d="m699.00004,313.44641l0,42.10715c0,11.57947 -9.47411,21.05358 -21.05358,21.05358l-133.3393,0l0,133.3393c0,11.57947 -9.47411,21.05358 -21.05358,21.05358l-42.10715,0c-11.57947,0 -21.05358,-9.47411 -21.05358,-21.05358l0,-133.3393l-133.3393,0c-11.57947,0 -21.05358,-9.47411 -21.05358,-21.05358l0,-42.10715c0,-11.57947 9.47411,-21.05358 21.05358,-21.05358l133.3393,0l0,-133.3393c0,-11.57947 9.47411,-21.05358 21.05358,-21.05358l42.10715,0c11.57947,0 21.05358,9.47411 21.05358,21.05358l0,133.3393l133.3393,0c11.57947,0 21.05358,9.47411 21.05358,21.05358z" fill="#00aa00"/>
</svg>