<svg width="532" height="497" xmlns="http://www.w3.org/2000/svg">
  <path d="m395.8871,69.714328q2.755667,2.759612 2.755667,6.347107t-2.755667,6.347107l-172.504762,172.751683q-2.755667,2.759612 -6.338034,2.759612t-6.338034,-2.759612l-22.59647,-22.628815q-2.755667,-2.759612 -2.755667,-6.347107t2.755667,-6.347107l12.124935,-12.142291q-19.840803,-25.112465 -22.458687,-57.123959t12.813852,-59.331648q-20.391937,-19.593242 -48.499742,-19.593242q-29.210072,0 -49.877575,20.697087t-20.667503,49.948969l0,353.230279l-70.545079,0l0,-353.230279q0,-28.69996 11.160452,-54.778289t30.174555,-45.119649t45.055158,-30.217747t54.699993,-11.176427q29.210072,0 55.388909,11.314407t45.744074,31.735533q25.903271,-10.762485 54.286642,-6.761048t50.979842,21.938912l12.124935,-12.142291q2.755667,-2.759612 6.338034,-2.759612t6.338034,2.759612l22.59647,22.628815l0.000001,0zm-24.525437,72.577784q7.164735,0 12.400502,5.243262t5.235768,12.418252t-5.235768,12.418252t-12.400502,5.243262t-12.400502,-5.243262t-5.235768,-12.418252t5.235768,-12.418252t12.400502,-5.243262zm70.545079,35.323028q-7.164735,0 -12.400502,-5.243262t-5.235768,-12.418252t5.235768,-12.418252t12.400502,-5.243262t12.400502,5.243262t5.235768,12.418252t-5.235768,12.418252t-12.400502,5.243262zm70.545079,-35.323028q7.164735,0 12.400502,5.243262t5.235768,12.418252t-5.235768,12.418252t-12.400502,5.243262t-12.400502,-5.243262t-5.235768,-12.418252t5.235768,-12.418252t12.400502,-5.243262zm-176.362696,35.323028q7.164735,0 12.400502,5.243262t5.235768,12.418252t-5.235768,12.418252t-12.400502,5.243262t-12.400502,-5.243262t-5.235768,-12.418252t5.235768,-12.418252t12.400502,-5.243262zm52.908809,17.661514q0,-7.17499 5.235768,-12.418252t12.400502,-5.243262t12.400502,5.243262t5.235768,12.418252t-5.235768,12.418252t-12.400502,5.243262t-12.400502,-5.243262t-5.235768,-12.418252zm88.181348,-17.661514q7.164735,0 12.400502,5.243262t5.235768,12.418252t-5.235768,12.418252t-12.400502,5.243262t-12.400502,-5.243262t-5.235768,-12.418252t5.235768,-12.418252t12.400502,-5.243262zm-176.362696,35.323028q7.164735,0 12.400502,5.243262t5.235768,12.418252t-5.235768,12.418252t-12.400502,5.243262t-12.400502,-5.243262t-5.235768,-12.418252t5.235768,-12.418252t12.400502,-5.243262zm70.545079,35.323028q-7.164735,0 -12.400502,-5.243262t-5.235768,-12.418252t5.235768,-12.418252t12.400502,-5.243262t12.400502,5.243262t5.235768,12.418252t-5.235768,12.418252t-12.400502,5.243262zm70.545079,-35.323028q7.164735,0 12.400502,5.243262t5.235768,12.418252t-5.235768,12.418252t-12.400502,5.243262t-12.400502,-5.243262t-5.235768,-12.418252t5.235768,-12.418252t12.400502,-5.243262zm-105.817618,70.646056q-7.164735,0 -12.400502,-5.243262t-5.235768,-12.418252t5.235768,-12.418252t12.400502,-5.243262t12.400502,5.243262t5.235768,12.418252t-5.235768,12.418252t-12.400502,5.243262zm70.545079,-35.323028q7.164735,0 12.400502,5.243262t5.235768,12.418252t-5.235768,12.418252t-12.400502,5.243262t-12.400502,-5.243262t-5.235768,-12.418252t5.235768,-12.418252t12.400502,-5.243262zm-105.817618,35.323028q7.164735,0 12.400502,5.243262t5.235768,12.418252t-5.235768,12.418252t-12.400502,5.243262t-12.400502,-5.243262t-5.235768,-12.418252t5.235768,-12.418252t12.400502,-5.243262zm70.545079,0q7.164735,0 12.400502,5.243262t5.235768,12.418252t-5.235768,12.418252t-12.400502,5.243262t-12.400502,-5.243262t-5.235768,-12.418252t5.235768,-12.418252t12.400502,-5.243262zm-35.272539,35.323028q7.164735,0 12.400502,5.243262t5.235768,12.418252t-5.235768,12.418252t-12.400502,5.243262t-12.400502,-5.243262t-5.235768,-12.418252t5.235768,-12.418252t12.400502,-5.243262zm-35.272539,35.323028q7.164735,0 12.400502,5.243262t5.235768,12.418252t-5.235768,12.418252t-12.400502,5.243262t-12.400502,-5.243262t-5.235768,-12.418252t5.235768,-12.418252t12.400502,-5.243262z"/>
</svg>