<svg xmlns="http://www.w3.org/2000/svg" viewBox="0 0 512 512">
	<path d="M 0 88.109375 L 0 149.61328 L 98.330078 149.61328 L 171.33203 267.2207 C 180.83565 282.53123 200.13847 287.62549 214.61328 278.64062 C 229.0881 269.65576 233.09151 250.09569 223.58789 234.78516 L 170.7207 149.61328 L 358.70117 149.61328 L 431.70312 267.2207 C 441.20674 282.53123 460.50956 287.62354 474.98438 278.63867 C 489.45919 269.6538 493.4626 250.09569 483.95898 234.78516 L 431.08984 149.61328 L 512 149.61328 L 512 88.109375 L 0 88.109375 z M 64.724609 218.03711 C 54.181191 218.19283 43.72503 223.83918 37.488281 233.88672 L 0 294.28125 L 0 406.28906 L 0 413.04883 L 512 413.04883 L 512 410.875 L 512 308.36328 L 485.19727 351.54492 L 297.21484 351.54492 L 350.11328 266.32422 C 359.6169 251.01369 355.61544 231.45362 341.14062 222.46875 C 326.66581 213.48388 307.36104 218.57814 297.85742 233.88867 L 224.82422 351.54492 L 36.84375 351.54492 L 89.744141 266.32422 C 99.247757 251.01369 95.244346 231.45362 80.769531 222.46875 C 75.793814 219.3802 70.247352 217.95554 64.724609 218.03711 z "/>
</svg>