<svg width="962" height="1683" xmlns="http://www.w3.org/2000/svg">
  <path d="m599.888921,1260.999927q0,74.999996 -52.402781,127.499993t-127.263896,52.499997t-127.263896,-52.499997t-52.402781,-127.499993q0,-56.249997 32.751738,-103.124994t87.026046,-66.562496l0,-370.312478l119.777784,0l0,370.312478q54.274308,19.687499 87.026046,66.562496t32.751738,103.124994zm119.777784,0q0,-72.187496 -31.815974,-134.999992t-87.96181,-104.999994l0,-719.999958q0,-74.999996 -52.402781,-127.499993t-127.263896,-52.499997t-127.263896,52.499997t-52.402781,127.499993l0,719.999958q-56.145836,42.187498 -87.96181,104.999994t-31.815974,134.999992q0,124.687493 87.493928,212.343738t211.950532,87.656245t211.950532,-87.656245t87.493928,-212.343738zm119.777784,0q0,173.43749 -123.052958,296.718733t-296.169287,123.281243t-296.169287,-123.281243t-123.052958,-296.718733q0,-170.62499 119.777784,-293.437483l0,-666.562461q0,-124.687493 87.493928,-212.343738t211.950532,-87.656245t211.950532,87.656245t87.493928,212.343738l0,666.562461q119.777784,122.812493 119.777784,293.437483zm119.777784,-539.999969l0,119.999993l-179.666676,0l0,-119.999993l179.666676,0zm0,-239.999986l0,119.999993l-179.666676,0l0,-119.999993l179.666676,0zm0,-239.999986l0,119.999993l-179.666676,0l0,-119.999993l179.666676,0z"/>
</svg>