<svg width="962" height="1683" xmlns="http://www.w3.org/2000/svg">
  <path fill="#ff0000" d="m600.09092,1261.704542q0,75.041937 -52.420455,127.571293t-127.30682,52.529356t-127.30682,-52.529356t-52.420455,-127.571293q0,-56.281453 32.762785,-103.182663t87.055399,-66.599719l0,-850.787961l119.818184,0l0,850.787961q54.292615,19.698508 87.055399,66.599719t32.762785,103.182663zm119.818184,0q0,-72.227864 -31.826705,-135.075487t-87.991479,-105.058712l0,-720.402595q0,-75.041937 -52.420455,-127.571293t-127.30682,-52.529356t-127.30682,52.529356t-52.420455,127.571293l0,720.402595q-56.164774,42.21109 -87.991479,105.058712t-31.826705,135.075487q0,124.75722 87.523439,212.462484t212.022021,87.705264t212.022021,-87.705264t87.523439,-212.462484zm119.818184,0q0,173.534479 -123.094462,296.884663t-296.269181,123.350184t-296.269181,-123.350184t-123.094462,-296.884663q0,-170.720407 119.818184,-293.601579l0,-666.935215q0,-124.75722 87.523439,-212.462484t212.022021,-87.705264t212.022021,87.705264t87.523439,212.462484l0,666.935215q119.818184,122.881172 119.818184,293.601579zm119.818184,-540.301947l0,120.067099l-179.727276,0l0,-120.067099l179.727276,0zm0,-240.134198l0,120.067099l-179.727276,0l0,-120.067099l179.727276,0zm0,-240.134198l0,120.067099l-179.727276,0l0,-120.067099l179.727276,0z"/>
</svg>