<svg width="962" height="1683" xmlns="http://www.w3.org/2000/svg" stroke="null" style="vector-effect: non-scaling-stroke;">
  <path d="m600.374962,1261.169189q0,75.010071 -52.445309,127.51712t-127.367179,52.50705t-127.367179,-52.50705t-52.445309,-127.51712q0,-56.257553 32.778318,-103.138847t87.096674,-66.571438l0,-610.394451l119.874992,0l0,610.394451q54.318356,19.690144 87.096674,66.571438t32.778318,103.138847zm119.874992,0q0,-72.197193 -31.841795,-135.018127t-88.033198,-105.014099l0,-720.09668q0,-75.010071 -52.445309,-127.51712t-127.367179,-52.50705t-127.367179,52.50705t-52.445309,127.51712l0,720.09668q-56.191403,42.193165 -88.033198,105.014099t-31.841795,135.018127q0,124.704243 87.564936,212.372263t212.122545,87.66802t212.122545,-87.66802t87.564936,-212.372263zm119.874992,0q0,173.460789 -123.152824,296.758593t-296.409649,123.297804t-296.409649,-123.297804t-123.152824,-296.758593q0,-170.647911 119.874992,-293.476902l0,-666.652004q0,-124.704243 87.564936,-212.372263t212.122545,-87.66802t212.122545,87.66802t87.564936,212.372263l0,666.652004q119.874992,122.828991 119.874992,293.476902zm119.874992,-540.07251l0,120.016113l-179.812489,0l0,-120.016113l179.812489,0zm0,-240.032227l0,120.016113l-179.812489,0l0,-120.016113l179.812489,0zm0,-240.032227l0,120.016113l-179.812489,0l0,-120.016113l179.812489,0z"/>
</svg>