<svg xmlns="http://www.w3.org/2000/svg" viewBox="0 0 514 514">
  <path d="M 62.863281 110.24219 C 41.331829 110.24219 20.30982 112.41613 0 116.54492 L 0 178.82812 C 20.098066 173.6935 41.15996 170.95898 62.863281 170.95898 C 202.6386 170.95898 315.84961 284.17196 315.84961 423.94727 C 315.84961 455.57045 310.03738 485.82622 299.45117 513.72656 L 363.51367 513.72656 C 371.99145 485.28163 376.56641 455.15288 376.56641 423.94727 C 376.56641 250.65119 236.15937 110.24219 62.863281 110.24219 z " />
  <path d="M 458.76094,25.703046 362.21578,122.2482 333.43851,93.470945 C 321.43463,81.467067 300.8442,89.972869 300.8442,106.985 v 89.0346 a 19.031325,19.031325 0 0 0 19.08026,19.08026 h 89.03462 c 17.01213,0 25.51792,-20.59043 13.51404,-32.59431 l -28.77726,-28.69821 96.58469,-96.584685 z" />
  <path d="m 95.151566,452.3516 96.545184,-96.54515 28.77727,28.77725 c 12.00387,12.00388 32.59431,3.49808 32.59431,-13.51405 v -89.0346 a 19.031325,19.031325 0 0 0 -19.08027,-19.08026 h -89.03462 c -17.01213,0 -25.51792,20.59043 -13.51404,32.59431 l 28.77727,28.69821 -96.584714,96.58468 z" />
</svg>
