<svg width="400" height="550" xmlns="http://www.w3.org/2000/svg">
 <path fill="#005fbf" d="m185.41565,394.00823q0,-13.03704 -7.2428,-24.98765q-0.36214,-0.36214 -5.61317,-8.14815t-9.23457,-13.76132t-9.0535,-15.93416t-7.60494,-18.28807q-1.44856,-5.79424 -7.60494,-5.79424t-7.60494,5.79424q-2.53498,8.32922 -7.60494,18.28807t-9.0535,15.93416t-9.23457,13.76132t-5.61317,8.14815q-7.2428,11.95062 -7.2428,24.98765q0,19.19342 13.58025,32.77366t32.77366,13.58025t32.77366,-13.58025t13.58025,-32.77366l0.00002,0zm185.41563,-46.35391q0,76.77366 -54.32099,131.09465t-131.09465,54.32099t-131.09465,-54.32099t-54.32099,-131.09465q0,-52.51029 29.33333,-99.58848q2.17284,-3.25926 22.63374,-32.77366t36.57613,-54.68313t36.03292,-64.4609t30.05761,-72.97119q3.25926,-10.8642 12.31276,-17.02058t18.46914,-6.15638t18.65021,6.15638t12.13169,17.02058q10.13992,33.67901 30.05761,72.97119t36.03292,64.4609t36.57613,54.68313t22.63374,32.77366q29.33333,45.99177 29.33333,99.58848l0.00002,0z"/>
  <path fill="#ff0000" d="m391.17627,476.12452l0,56.76735q0,6.58907 -4.81509,11.40416t-11.40416,4.81509l-64.87698,0q-6.58907,0 -11.40416,-4.81509t-4.81509,-11.40416l0,-56.76735q0,-6.58907 4.81509,-11.40416t11.40416,-4.81509l64.87698,0q6.58907,0 11.40416,4.81509t4.81509,11.40416zm7.60277,-267.61752l-7.09592,194.63093q-0.25343,6.58907 -5.19523,11.40416t-11.53087,4.81509l-64.87698,0q-6.58907,0 -11.53087,-4.81509t-5.19523,-11.40416l-7.09592,-194.63093q-0.25343,-6.58907 4.43495,-11.40416t11.27744,-4.81509l81.09622,0q6.58907,0 11.27744,4.81509t4.43495,11.40416l0.00002,0z"/>
</svg>