<svg width="1792" height="1792" xmlns="http://www.w3.org/2000/svg">
<path fill="#005fbf" id="svg_1" d="m896,1152q0,-36 -20,-69q-1,-1 -15.5,-22.5t-25.5,-38t-25,-44t-21,-50.5q-4,-16 -21,-16t-21,16q-7,23 -21,50.5t-25,44t-25.5,38t-15.5,22.5q-20,33 -20,69q0,53 37.5,90.5t90.5,37.5t90.5,-37.5t37.5,-90.5zm512,-128q0,212 -150,362t-362,150t-362,-150t-150,-362q0,-145 81,-275q6,-9 62.5,-90.5t101,-151t99.5,-178t83,-201.5q9,-30 34,-47t51,-17t51.5,17t33.5,47q28,93 83,201.5t99.5,178t101,151t62.5,90.5q81,127 81,275z"/>
</svg>