<svg xmlns="http://www.w3.org/2000/svg" viewBox="0 0 512 512">
	<path fill="#FFFFFF" d="m 500,384 c 6.6,0 12,5.4 12,12 v 40 c 0,6.6 -5.4,12 -12,12 H 12 C 5.4,448 0,442.6 0,436 V 76 C 0,69.4 5.4,64 12,64 h 40 c 6.6,0 12,5.4 12,12 v 308 z" />
	<path fill="#FFFFFF" d="m 227.79492,135.03711 c -19.3387,0 -35.01562,15.67491 -35.01562,35.01367 0,3.11492 0.54022,6.08481 1.29882,8.95899 l -74.04296,74.04296 c -2.8742,-0.75867 -5.84409,-1.29882 -8.95899,-1.29882 -19.338698,0 -35.015623,15.67686 -35.015623,35.01562 0,19.33877 15.676925,35.01563 35.015623,35.01563 19.3388,0 35.01563,-15.67686 35.01563,-35.01563 0,-3.11492 -0.54013,-6.08284 -1.29883,-8.95703 l 74.04492,-74.04297 c 2.8742,0.75867 5.84213,1.29688 8.95703,1.29688 4.4864,0 8.73309,-0.91781 12.67969,-2.45703 l 5.57031,4.45507 24.4668,-25.25781 -8.21875,-6.57617 c 0.2553,-1.69971 0.51758,-3.40703 0.51758,-5.17969 0,-19.33876 -15.67683,-35.01367 -35.01563,-35.01367 z" />
	<path fill="#FFFFFF" d="m 312.30734,230.10214 h 73.4375 V 155.88339 Z M 494.92453,367.79745 H 352.93234 v -55.07812 h 32.8125 v -34.375 H 271.29172 L 256.05734,221.7037 383.01047,90.649017 h 83.98437 V 230.10214 h 27.92969 v 48.24219 h -27.92969 v 34.375 h 27.92969 z" />
</svg>
