<svg xmlns="http://www.w3.org/2000/svg" viewBox="0 0 512 512">
	<path fill="#CCCCCC" d="m 439.16695,283.3652 h 56.25 l -2.34375,84.96094 H 276.86226 q -0.39063,-8.20312 -0.39063,-8.39844 0,-37.89062 16.40625,-67.96875 8.39844,-15.42968 23.24219,-30.66406 14.84375,-15.23437 36.13281,-30.66406 35.9375,-26.5625 46.28907,-38.28125 10.35156,-12.10938 10.35156,-24.41406 0,-11.91407 -7.03125,-19.53125 -7.03125,-7.61719 -21.09375,-7.61719 -30.07813,0 -30.07813,38.08594 l -69.92187,-2.14844 q 2.14844,-46.67969 31.05469,-66.21094 29.10156,-19.335936 73.4375,-19.335936 48.4375,0 78.51562,22.265626 30.07813,22.46094 30.07813,58.59375 0,23.24219 -15.23438,42.96875 -15.625,19.72656 -59.57031,42.1875 -35.54688,17.96875 -47.65625,27.14844 -12.30469,9.57031 -18.75,21.67968 h 85.54687 z" />
</svg>