<svg xmlns="http://www.w3.org/2000/svg" viewBox="0 0 512 512">
	<path fill="#FFFFFF" d="m 500,384 c 6.6,0 12,5.4 12,12 v 40 c 0,6.6 -5.4,12 -12,12 H 12 C 5.4,448 0,442.6 0,436 V 76 C 0,69.4 5.4,64 12,64 h 40 c 6.6,0 12,5.4 12,12 v 308 z" />
	<path fill="#FFFFFF" d="m 227.79492,135.03516 c -19.3387,0 -35.01562,15.67686 -35.01562,35.01562 0,3.11492 0.54024,6.08481 1.29882,8.95899 l -74.04296,74.04296 c -2.8742,-0.75867 -5.84409,-1.29882 -8.95899,-1.29882 -19.338698,0 -35.01367,15.67686 -35.01367,35.01562 0,19.33877 15.674972,35.01563 35.01367,35.01563 0.60434,0 1.20592,-0.0147 1.80274,-0.0449 18.50137,-0.93781 33.21289,-16.23627 33.21289,-34.9707 0,-0.77873 -0.0334,-1.54918 -0.0957,-2.31055 -0.18692,-2.28411 -0.63214,-4.49279 -1.20117,-6.64843 l 74.04297,-74.04297 c 2.8742,0.75867 5.84213,1.29883 8.95703,1.29883 4.4864,0 8.73308,-0.91977 12.67969,-2.45899 l 63.97656,51.17969 41.11133,-3.08203 0.29688,-22.26758 c -0.44917,-0.0185 -0.89951,-0.0352 -1.35352,-0.0352 -4.4863,0 -8.73112,0.91977 -12.67774,2.45899 l -69.53515,-55.63086 c 0.10851,-0.72243 0.21285,-1.44806 0.30273,-2.17774 0.0715,-0.57707 0.13492,-1.15565 0.17188,-1.74218 0.0263,-0.4168 0.043,-0.8363 0.043,-1.25977 0,-14.07926 -8.31278,-26.21042 -20.29493,-31.77148 -0.0148,-0.007 -0.0301,-0.0127 -0.0449,-0.0195 -0.51206,-0.23679 -1.03156,-0.46142 -1.55664,-0.67383 -0.085,-0.0344 -0.17053,-0.0678 -0.25586,-0.10156 -0.48511,-0.1918 -0.97525,-0.37251 -1.4707,-0.54297 -0.0864,-0.0298 -0.17308,-0.0588 -0.25977,-0.0879 -0.48465,-0.16249 -0.97294,-0.31544 -1.46679,-0.45704 -0.11054,-0.0318 -0.22105,-0.063 -0.33203,-0.0937 -0.48091,-0.13272 -0.96611,-0.2547 -1.45508,-0.36718 -0.12178,-0.0281 -0.24298,-0.0572 -0.36524,-0.084 -0.44129,-0.0965 -0.88664,-0.18201 -1.33398,-0.26172 -0.19005,-0.034 -0.37922,-0.0706 -0.57031,-0.10156 -0.39902,-0.0643 -0.80167,-0.11535 -1.20508,-0.16601 -0.21753,-0.0275 -0.43359,-0.0606 -0.65234,-0.084 -0.47098,-0.0502 -0.94552,-0.0859 -1.42188,-0.11719 -0.13983,-0.009 -0.27769,-0.0256 -0.41797,-0.0332 -0.63301,-0.0341 -1.2706,-0.0527 -1.91211,-0.0527 z" />
	<path fill="#FFFFFF" d="m 262.73299,273.24881 70.3125,-5.27344 q 1.75781,43.35938 40.42968,43.35938 16.79688,0 25,-9.17969 8.00782,-9.17969 8.00782,-22.26563 0,-33.20312 -44.33594,-34.76562 v -44.14063 q 13.67187,0 25.78125,-8.00781 11.91406,-7.8125 11.91406,-23.24219 0,-12.5 -7.8125,-20.11718 -8.00781,-7.42188 -21.09375,-7.42188 -27.92969,0 -30.07812,30.85938 l -73.4375,-3.90625 q 2.34375,-40.625 31.64062,-60.74219 29.10156,-20.117188 79.49219,-20.117188 53.71094,0 80.46875,21.874998 26.75781,22.07031 26.75781,54.29688 0,19.33593 -11.32812,34.375 -11.32813,15.23437 -30.66407,21.09375 24.41407,5.27343 38.08594,22.46093 13.67188,17.1875 13.67188,41.60157 0,39.0625 -32.42188,61.52343 -32.42187,22.46094 -85.35156,22.46094 -53.32031,0 -83.59375,-23.24219 -29.88281,-23.04687 -31.44531,-71.48437 z" />
 </svg>
