<svg xmlns="http://www.w3.org/2000/svg" viewBox="0 0 512 512">
	<path fill="#FFFFFF" d="m 500,384 c 6.6,0 12,5.4 12,12 v 40 c 0,6.6 -5.4,12 -12,12 H 12 C 5.4,448 0,442.6 0,436 V 76 C 0,69.4 5.4,64 12,64 h 40 c 6.6,0 12,5.4 12,12 v 308 z" />
	<path fill="#FFFFFF" d="m 227.79492,135.03516 c -19.3387,0 -35.01562,15.67686 -35.01562,35.01562 0,3.11492 0.54023,6.08481 1.29882,8.95899 l -74.04296,74.04296 c -2.8742,-0.75867 -5.84409,-1.29882 -8.95899,-1.29882 -19.338698,0 -35.01367,15.67686 -35.01367,35.01562 0,19.33877 15.674972,35.01563 35.01367,35.01563 19.3388,0 35.01563,-15.67686 35.01563,-35.01563 0,-3.11492 -0.53818,-6.08479 -1.29688,-8.95898 l 74.04297,-74.04297 c 2.8742,0.75867 5.84213,1.29883 8.95703,1.29883 4.4864,0 8.73309,-0.91977 12.67969,-2.45899 l 63.81836,51.05469 c 7.77113,-7.70261 16.77246,-15.44336 27.00976,-23.2207 l -69.00976,-55.21094 c 0.2553,-1.69971 0.51758,-3.40703 0.51758,-5.17969 0,-19.33876 -15.67683,-35.01562 -35.01563,-35.01562 z" />
	<path fill="#FFFFFF" d="m 439.16695,283.3652 h 56.25 l -2.34375,84.96094 H 276.86226 q -0.39063,-8.20312 -0.39063,-8.39844 0,-37.89062 16.40625,-67.96875 8.39844,-15.42968 23.24219,-30.66406 14.84375,-15.23437 36.13281,-30.66406 35.9375,-26.5625 46.28907,-38.28125 10.35156,-12.10938 10.35156,-24.41406 0,-11.91407 -7.03125,-19.53125 -7.03125,-7.61719 -21.09375,-7.61719 -30.07813,0 -30.07813,38.08594 l -69.92187,-2.14844 q 2.14844,-46.67969 31.05469,-66.21094 29.10156,-19.335936 73.4375,-19.335936 48.4375,0 78.51562,22.265626 30.07813,22.46094 30.07813,58.59375 0,23.24219 -15.23438,42.96875 -15.625,19.72656 -59.57031,42.1875 -35.54688,17.96875 -47.65625,27.14844 -12.30469,9.57031 -18.75,21.67968 h 85.54687 z" />
</svg>
