<svg xmlns="http://www.w3.org/2000/svg" viewBox="0 0 640 640">
	<path d="m 169.3875,566.5125 -96,-96 c -9.2,-9.2 -11.9,-22.9 -6.9,-34.9 5,-12 16.6,-19.7 29.5,-19.7 h 64 v -320 c 0,-17.7 14.3,-32 32,-32 17.7,0 32,14.3 32,32 v 320 h 64 c 12.9,0 24.6,7.8 29.6,19.8 5,12 2.2,25.7 -6.9,34.9 l -96,96 c -12.5,12.5 -32.8,12.5 -45.3,0 z m 256,-493.2 c 12.5,-12.5 32.8,-12.5 45.3,0 l 96,96 c 9.2,9.2 11.9,22.9 6.9,34.9 -5,12 -16.7,19.7 -29.6,19.7 h -64 v 320 c 0,17.7 -14.3,32 -32,32 -17.7,0 -32,-14.3 -32,-32 v -320 h -64 c -12.9,0 -24.6,-7.8 -29.6,-19.8 -5,-12 -2.2,-25.7 6.9,-34.9 l 96,-96 z"/>
</svg>