<svg xmlns="http://www.w3.org/2000/svg" viewBox="0 0 2042 1542">
  <path d="m704.00001,768q-159,0 -271.5,-112.5t-112.5,-271.5t112.5,-271.5t271.5,-112.5t271.5,112.5t112.5,271.5t-112.5,271.5t-271.5,112.5zm224,352q0,52 38,90t90,38l256,0l0,238q-68,50 -171,50l-874,0q-121,0 -194,-69t-73,-190q0,-53 3.5,-103.5t14,-109t26.5,-108.5t43,-97.5t62,-81t85.5,-53.5t111.5,-20q19,0 39,17q79,61 154.5,91.5t164.5,30.5t164.5,-30.5t154.5,-91.5q20,-17 39,-17q132,0 217,96l-223,0q-52,0 -90,38t-38,90l0,192z"/>
  <path fill="#00aa00" d="m1664.00001,896l352,0q13,0 22.5,9.5t9.5,22.5l0,192q0,13 -9.5,22.5t-22.5,9.5l-352,0l0,352q0,13 -9.5,22.5t-22.5,9.5l-192,0q-13,0 -22.5,-9.5t-9.5,-22.5l0,-352l-352,0q-13,0 -22.5,-9.5t-9.5,-22.5l0,-192q0,-13 9.5,-22.5t22.5,-9.5l352,0l0,-352q0,-13 9.5,-22.5t22.5,-9.5l192,0q13,0 22.5,9.5t9.5,22.5l0,352z"/>
</svg>