<svg xmlns="http://www.w3.org/2000/svg" viewBox="0 0 640 512">
<path d="m224,256c70.7,0 128,-57.3 128,-128s-57.3,-128 -128,-128s-128,57.3 -128,128s57.3,128 128,128zm89.6,32l-16.7,0c-22.2,10.2 -46.9,16 -72.9,16s-50.6,-5.8 -72.9,-16l-16.7,0c-74.2,0 -134.4,60.2 -134.4,134.4l0,41.6c0,26.5 21.5,48 48,48l352,0c26.5,0 48,-21.5 48,-48l0,-41.6c0,-74.2 -60.2,-134.4 -134.4,-134.4z"/>
<path fill="#00AA00" d="m624,208l-64,0l0,-64c0,-8.8 -7.2,-16 -16,-16l-32,0c-8.8,0 -16,7.2 -16,16l0,64l-64,0c-8.8,0 -16,7.2 -16,16l0,32c0,8.8 7.2,16 16,16l64,0l0,64c0,8.8 7.2,16 16,16l32,0c8.8,0 16,-7.2 16,-16l0,-64l64,0c8.8,0 16,-7.2 16,-16l0,-32c0,-8.8 -7.2,-16 -16,-16z"/>
</svg>