<svg xmlns="http://www.w3.org/2000/svg" viewBox="0 0 2042 1542">
<path d="m704,768q-159,0 -271.5,-112.5t-112.5,-271.5t112.5,-271.5t271.5,-112.5t271.5,112.5t112.5,271.5t-112.5,271.5t-271.5,112.5zm579,320l-181,181q-37,37 -37,91q0,53 37,90l83,83q-21,3 -44,3l-874,0q-121,0 -194,-69t-73,-190q0,-53 3.5,-103.5t14,-109t26.5,-108.5t43,-97.5t62,-81t85.5,-53.5t111.5,-20q19,0 39,17q154,122 319,122t319,-122q20,-17 39,-17q28,0 57,6q-28,27 -41,50t-13,56q0,54 37,91l181,181z"/>
<path fill="#e00000" id="svg_2" d="m1781,1088l249,249q9,9 9,23q0,13 -9,22l-136,136q-9,9 -22,9q-14,0 -23,-9l-249,-249l-249,249q-9,9 -23,9q-13,0 -22,-9l-136,-136q-9,-9 -9,-22q0,-14 9,-23l249,-249l-249,-249q-9,-9 -9,-23q0,-13 9,-22l136,-136q9,-9 22,-9q14,0 23,9l249,249l249,-249q9,-9 23,-9q13,0 22,9l136,136q9,9 9,22q0,14 -9,23l-249,249z"/>
</svg>