<svg xmlns="http://www.w3.org/2000/svg" viewBox="0 0 640 512">
<path d="m224,257c70.7,0 128,-57.3 128,-128s-57.3,-128 -128,-128s-128,57.3 -128,128s57.3,128 128,128zm89.6,32l-16.7,0c-22.2,10.2 -46.9,16 -72.9,16s-50.6,-5.8 -72.9,-16l-16.7,0c-74.2,0 -134.4,60.2 -134.4,134.4l0,41.6c0,26.5 21.5,48 48,48l274.9,0c-2.4,-6.8 -3.4,-14 -2.6,-21.3l6.8,-60.9l1.2,-11.1l7.9,-7.9l77.3,-77.3c-24.5,-27.7 -60,-45.5 -99.9,-45.5z"/>
<path fill="#555555" d="m358.9,434.3l-6.8,61c-1.1,10.2 7.5,18.8 17.6,17.6l60.9,-6.8l137.9,-137.9l-71.7,-71.7l-137.9,137.8zm274.1,-164.4l-37.9,-37.9c-9.3,-9.3 -24.5,-9.3 -33.8,0l-37.8,37.8l-4.1,4.1l71.8,71.7l41.8,-41.8c9.3,-9.4 9.3,-24.5 0,-33.9z"/>
</svg>