<svg xmlns="http://www.w3.org/2000/svg" viewBox="0 0 640 512">
<path d="m492.7,502.6zm-268.7,-246.7c70.7,0 128,-57.3 128,-128c0,-70.6 -57.3,-127.9 -128,-127.9s-128,57.3 -128,128c0,70.6 57.3,127.9 128,127.9zm127.8,111.2l0,-73.1c-12.2,-3.6 -24.9,-6.2 -38.2,-6.2l-16.7,0c-22.2,10.2 -46.9,16 -72.9,16s-50.6,-5.8 -72.9,-16l-16.7,0c-74.2,0.1 -134.4,60.3 -134.4,134.5l0,41.6c0,26.5 21.5,48 48,48l352,0c15.5,0 29.1,-7.5 37.9,-18.9l-58,-58c-18.1,-18.1 -28.1,-42.2 -28.1,-67.9z"/>
  <path fill="#00bfbf" d="m630.6,364.9l-90.3,-90.2c-12,-12 -28.3,-18.7 -45.3,-18.7l-79.3,0c-17.7,0 -32,14.3 -32,32l0,79.2c0,17 6.7,33.2 18.7,45.2l90.3,90.2c12.5,12.5 32.8,12.5 45.3,0l92.5,-92.5c12.6,-12.5 12.6,-32.7 0.1,-45.2zm-182.8,-21c-13.3,0 -24,-10.7 -24,-24s10.7,-24 24,-24s24,10.7 24,24c0,13.2 -10.7,24 -24,24z"/>
</svg>